<svg width="29" height="26" viewBox="0 0 29 26" fill="none" xmlns="http://www.w3.org/2000/svg">
<path d="M28.0261 7.75089C28.0121 7.76531 27.9874 7.77825 27.9855 7.79452C27.9564 8.02227 27.835 8.20011 27.6793 8.35614C25.8043 10.2366 23.9285 12.116 22.0527 13.9957C21.766 14.283 21.4808 14.5714 21.1927 14.8572C20.9108 15.1367 20.5736 15.2202 20.1917 15.1282C19.6681 15.0021 19.3615 14.5998 19.3663 14.0641C19.3756 13.0174 19.3685 11.9707 19.3711 10.9239C19.3711 10.8481 19.3449 10.8311 19.2748 10.8315C18.1318 10.8341 16.9888 10.8297 15.8461 10.8385C15.4816 10.8415 15.1159 10.864 14.7536 10.9021C14.2666 10.9531 13.7807 11.0182 13.2974 11.0966C13.0037 11.1443 12.7133 11.219 12.4259 11.2974C12.1115 11.3831 11.7972 11.4726 11.4921 11.5858C10.8117 11.8379 10.1815 12.1814 9.63546 12.668C9.04365 13.1952 8.633 13.8459 8.36145 14.5832C8.23121 14.9367 8.14192 15.306 8.04415 15.6706C7.99102 15.8684 7.94564 16.0699 7.92092 16.2729C7.87701 16.6352 7.8379 16.999 7.82204 17.3636C7.80174 17.8269 7.79363 18.292 7.80359 18.7556C7.81208 19.1575 7.84749 19.5594 7.87996 19.9606C7.90653 20.2874 7.94047 20.6139 7.9829 20.9393C8.00209 21.0868 8.02681 21.2269 7.95818 21.37C7.78809 21.7235 7.26786 21.7778 7.0369 21.4621C6.72919 21.0413 6.45763 20.598 6.21228 20.1384C5.92929 19.609 5.64187 19.0814 5.37548 18.5434C5.1519 18.092 4.95635 17.6261 4.8095 17.1429C4.68664 16.7376 4.57079 16.3298 4.45973 15.9213C4.2557 15.1722 4.19261 14.4065 4.22471 13.6333C4.24463 13.1516 4.27009 12.6691 4.31436 12.1892C4.3413 11.8978 4.40365 11.6091 4.45973 11.3214C4.51176 11.0548 4.56894 10.7886 4.63757 10.5261C4.75785 10.0643 4.92942 9.62026 5.14821 9.19617C5.47658 8.55912 5.87173 7.96829 6.36466 7.44475C6.74321 7.04285 7.15976 6.68827 7.6287 6.3984C7.96851 6.18839 8.31201 5.98319 8.6651 5.79722C9.03996 5.59978 9.42921 5.43081 9.8347 5.30362C10.2321 5.17902 10.625 5.03815 11.0283 4.93648C11.4592 4.82778 11.8986 4.75161 12.3359 4.67064C12.6425 4.61407 12.9509 4.56822 13.2601 4.52718C13.5025 4.49502 13.7471 4.47505 13.991 4.45509C14.3729 4.42403 14.7544 4.38077 15.137 4.37226C16.156 4.35045 17.1751 4.3438 18.1942 4.33307C18.5535 4.32938 18.9132 4.33159 19.2726 4.33344C19.3375 4.33381 19.3671 4.31644 19.3667 4.24508C19.3641 3.66718 19.3649 3.08892 19.3637 2.51103C19.363 2.02816 19.3619 1.54565 19.3604 1.06278C19.3586 0.53924 19.6563 0.181708 20.1315 0.0478644C20.5352 -0.0660135 20.9027 0.0212436 21.2085 0.33182C21.6424 0.771802 22.0848 1.20328 22.5216 1.64031C23.5304 2.64968 24.5373 3.6609 25.5456 4.67064C26.2518 5.37757 26.9587 6.08339 27.666 6.78921C27.8298 6.953 27.9553 7.13639 27.9866 7.37302C27.9888 7.38966 28.0128 7.40334 28.0265 7.4185C28.0261 7.52905 28.0261 7.63997 28.0261 7.75089Z" fill="#C2FFA8"/>
<path d="M0.00184636 14.0818C0.00184636 11.44 0.00295323 8.79793 1.57313e-06 6.15619C-0.000367384 5.89811 0.0642 5.65409 0.155701 5.423C0.278564 5.11243 0.424302 4.80777 0.591808 4.51901C0.867788 4.04279 1.24117 3.64533 1.65809 3.28669C1.96174 3.02529 2.2927 2.80714 2.65059 2.63226C3.04648 2.43852 3.46377 2.30689 3.90024 2.23221C4.4249 2.14236 4.95288 2.17009 5.47975 2.1675C6.40398 2.1627 7.32785 2.16713 8.25209 2.1675C8.52549 2.1675 8.79851 2.16492 9.07191 2.16639C9.43681 2.16861 9.67921 2.49361 9.59583 2.85669C9.54676 3.07039 9.40545 3.16726 9.20806 3.23566C8.8225 3.36914 8.43731 3.5089 8.06503 3.67528C7.69828 3.83944 7.34519 4.03503 6.99099 4.22581C6.81758 4.31935 6.63606 4.32268 6.449 4.32231C5.84723 4.32194 5.24509 4.31676 4.64369 4.32896C4.02458 4.34154 3.48148 4.56448 3.01438 4.97267C2.6314 5.30765 2.34066 5.70622 2.18496 6.19538C2.09752 6.46972 2.0621 6.7522 2.0621 7.03948C2.0621 11.7258 2.0621 16.4126 2.0621 21.099C2.0621 21.6351 2.17722 22.1386 2.48234 22.5875C2.85536 23.1366 3.34312 23.5392 3.98547 23.7296C4.25592 23.8098 4.53596 23.842 4.82005 23.8416C8.76236 23.8402 12.7043 23.8405 16.6466 23.8402C17.4026 23.8402 18.1586 23.8512 18.9142 23.8361C19.7289 23.8198 20.3911 23.4738 20.9143 22.8496C21.1645 22.5513 21.3504 22.2192 21.4434 21.8429C21.4943 21.6362 21.5253 21.4191 21.5264 21.2062C21.5342 19.9931 21.5323 18.78 21.5286 17.5665C21.5279 17.3014 21.6338 17.1132 21.8725 16.9994C22.2156 16.8359 22.5167 16.61 22.7916 16.3505C23.1011 16.058 23.552 16.2806 23.6472 16.5475C23.6782 16.6348 23.6867 16.7339 23.687 16.8278C23.6896 18.2413 23.6944 19.6544 23.6848 21.0679C23.6826 21.4169 23.6564 21.77 23.5948 22.1131C23.4974 22.6578 23.2926 23.1672 23.0008 23.6405C22.6281 24.2443 22.1477 24.746 21.5722 25.1546C21.0457 25.5284 20.4642 25.7813 19.8274 25.9066C19.4152 25.9876 19.0002 25.9987 18.5832 25.9987C14.6778 25.9983 10.7724 25.9979 6.86739 25.9979C6.20364 25.9979 5.53989 25.9983 4.87613 25.9976C4.6887 25.9972 4.4998 26.0064 4.31458 25.9868C3.93197 25.9462 3.54715 25.8981 3.18816 25.7539C2.87528 25.6282 2.56093 25.4955 2.27278 25.3228C1.9968 25.1575 1.74258 24.9497 1.49907 24.7375C1.09691 24.387 0.762635 23.9744 0.502521 23.5078C0.273768 23.0981 0.0896581 22.6685 0.0110703 22.2008C0.00295323 22.1527 0.00332218 22.1028 0.00332218 22.0536C0.00184636 19.3963 0.00184636 16.7391 0.00184636 14.0818Z" fill="#C2FFA8"/>
</svg>
