<svg width="14" height="14" viewBox="0 0 14 14" fill="none" xmlns="http://www.w3.org/2000/svg">
<path d="M5.95993 14C5.76919 14 5.61212 13.9344 5.49094 13.8033C5.36977 13.6722 5.30918 13.5185 5.30918 13.3444V8.54739H0.675429C0.484693 8.54739 0.323129 8.48636 0.19298 8.36428C0.0650745 8.24221 0 8.08397 0 7.89182V5.97707C0 5.78492 0.0650745 5.62216 0.195224 5.49104C0.325373 5.35992 0.484693 5.29437 0.677673 5.29437H5.30918V0.655579C5.30918 0.463427 5.36977 0.305183 5.49094 0.18311C5.61212 0.0610367 5.76919 0 5.95993 0H8.09393C8.26671 0 8.4193 0.0610367 8.54945 0.18311C8.6796 0.305183 8.74467 0.463427 8.74467 0.655579V5.29663H13.3515C13.5422 5.29663 13.6971 5.36218 13.8205 5.4933C13.9417 5.62442 14.0022 5.78718 14.0022 5.97933V7.89408C14.0022 8.08623 13.9417 8.24447 13.8205 8.36654C13.6993 8.48862 13.5422 8.54966 13.3515 8.54966H8.74467V13.3467C8.74467 13.5208 8.6796 13.6745 8.54945 13.8056C8.4193 13.9367 8.26671 14.0023 8.09393 14.0023H5.95993V14Z" fill="#FB4884"/>
</svg>
