<svg width="32" height="32" viewBox="0 0 32 32" fill="none" xmlns="http://www.w3.org/2000/svg">
<circle opacity="0.5" cx="16" cy="16" r="16" fill="white"/>
<path d="M19.464 23.04C19.368 23.04 19.232 22.984 19.056 22.872L10.416 16.992C10.176 16.832 10 16.68 9.888 16.536C9.776 16.376 9.72 16.184 9.72 15.96V15.216C9.72 14.992 9.776 14.8 9.888 14.64C10 14.48 10.176 14.32 10.416 14.16L19.056 8.28C19.248 8.184 19.384 8.136 19.464 8.136C19.608 8.136 19.728 8.184 19.824 8.28C19.92 8.36 19.968 8.472 19.968 8.616V11.208C19.968 11.432 19.904 11.616 19.776 11.76C19.664 11.888 19.504 12.016 19.296 12.144L14.064 15.576L19.296 19.032C19.52 19.16 19.688 19.288 19.8 19.416C19.912 19.544 19.968 19.72 19.968 19.944V22.536C19.968 22.68 19.92 22.8 19.824 22.896C19.728 22.992 19.608 23.04 19.464 23.04Z" fill="#141414"/>
</svg>
