<svg width="23" height="24" viewBox="0 0 23 24" fill="none" xmlns="http://www.w3.org/2000/svg">
<path fill-rule="evenodd" clip-rule="evenodd" d="M9.98353 2.10645H12.4298C14.6004 2.10644 16.2955 2.10643 17.6166 2.28235C18.9664 2.46208 20.0222 2.83591 20.8495 3.65528C21.6768 4.47464 22.0543 5.52029 22.2357 6.85711C22.4133 8.16557 22.4133 9.84429 22.4133 11.9941V13.2547C22.4133 15.4045 22.4133 17.0832 22.2357 18.3917C22.0543 19.7285 21.6768 20.7742 20.8495 21.5935C20.0222 22.4129 18.9664 22.7867 17.6166 22.9665C16.2955 23.1424 14.6005 23.1424 12.4298 23.1424H9.98349C7.81286 23.1424 6.11787 23.1424 4.79672 22.9665C3.44694 22.7867 2.39115 22.4129 1.56385 21.5935C0.736536 20.7742 0.35908 19.7285 0.177607 18.3917C-1.80981e-05 17.0832 -1.01258e-05 15.4045 1.5605e-07 13.2547V11.9941C-1.01258e-05 9.84432 -1.80981e-05 8.16558 0.177607 6.85711C0.35908 5.52029 0.736536 4.47464 1.56385 3.65528C2.39115 2.83591 3.44694 2.46208 4.79672 2.28235C6.11787 2.10643 7.81289 2.10644 9.98353 2.10645ZM4.96872 3.54937C3.76207 3.71004 3.02409 4.01702 2.47659 4.55926C1.92909 5.1015 1.61915 5.8324 1.45692 7.02745C1.29219 8.2409 1.29082 9.83376 1.29082 12.0433V13.2055C1.29082 15.4151 1.29219 17.0079 1.45692 18.2214C1.61915 19.4164 1.92909 20.1473 2.47659 20.6896C3.02409 21.2318 3.76207 21.5388 4.96872 21.6994C6.19393 21.8626 7.80223 21.8639 10.0332 21.8639H12.3801C14.6111 21.8639 16.2194 21.8626 17.4446 21.6994C18.6513 21.5388 19.3892 21.2318 19.9367 20.6896C20.4842 20.1473 20.7942 19.4164 20.9564 18.2214C21.1211 17.0079 21.1225 15.4151 21.1225 13.2055V12.0433C21.1225 9.83376 21.1211 8.2409 20.9564 7.02745C20.7942 5.8324 20.4842 5.1015 19.9367 4.55926C19.3892 4.01702 18.6513 3.71004 17.4446 3.54937C16.2194 3.38623 14.6111 3.38487 12.3801 3.38487H10.0332C7.80223 3.38487 6.19393 3.38623 4.96872 3.54937Z" fill="#8a8a8a"/>
<path fill-rule="evenodd" clip-rule="evenodd" d="M0.509277 7.20073C0.509277 6.84771 0.798236 6.56152 1.15468 6.56152H21.1036C21.4601 6.56152 21.749 6.84771 21.749 7.20073C21.749 7.55375 21.4601 7.83994 21.1036 7.83994H1.15468C0.798236 7.83994 0.509277 7.55375 0.509277 7.20073Z" fill="#8a8a8a"/>
<path fill-rule="evenodd" clip-rule="evenodd" d="M6.55127 12.8179C6.55127 12.4649 6.84023 12.1787 7.19668 12.1787H14.8242C15.1806 12.1787 15.4696 12.4649 15.4696 12.8179C15.4696 13.1709 15.1806 13.4571 14.8242 13.4571H7.19668C6.84023 13.4571 6.55127 13.1709 6.55127 12.8179Z" fill="#8a8a8a"/>
<path fill-rule="evenodd" clip-rule="evenodd" d="M6.51575 0.363281C6.87218 0.363281 7.16113 0.649465 7.16113 1.00249L7.16113 4.48909C7.16113 4.84211 6.87218 5.1283 6.51575 5.1283C6.15931 5.1283 5.87036 4.84211 5.87036 4.48909L5.87036 1.00249C5.87036 0.649465 6.15931 0.363281 6.51575 0.363281Z" fill="#8a8a8a"/>
<path fill-rule="evenodd" clip-rule="evenodd" d="M15.9044 0.363281C16.2609 0.363281 16.5498 0.649465 16.5498 1.00249L16.5498 4.48909C16.5498 4.84211 16.2609 5.1283 15.9044 5.1283C15.548 5.1283 15.259 4.84211 15.259 4.48909L15.259 1.00249C15.259 0.649465 15.548 0.363281 15.9044 0.363281Z" fill="#8a8a8a"/>
</svg>
