<svg width="85" height="86" viewBox="0 0 85 86" fill="none" xmlns="http://www.w3.org/2000/svg">
<g clip-path="url(#clip0)">
<path d="M42.5033 86.0068C65.9773 86.0068 85.0067 66.7535 85.0067 43.0034C85.0067 19.2533 65.9773 0 42.5033 0C19.0294 0 0 19.2533 0 43.0034C0 66.7535 19.0294 86.0068 42.5033 86.0068Z" fill="#C2FFA8"/>
<path d="M25.3219 62.5812C22.483 62.5812 19.6508 62.5744 16.8119 62.588C16.5641 62.588 16.5173 62.5406 16.5173 62.2899C16.524 56.5724 16.524 50.8616 16.524 45.1441C16.5508 45.0493 16.5842 44.9612 16.5976 44.8664C17.0797 41.4995 20.0458 39.0201 23.4204 39.0404C32.5799 39.0946 41.7394 39.0608 50.8989 39.054C51.9033 39.054 52.9009 38.9727 53.8651 38.6746C55.9072 38.0446 56.8178 35.9039 55.8268 34.0342C55.4385 33.3026 54.8091 32.869 54.0592 32.5981C53.2424 32.3068 52.392 32.1916 51.5283 32.1984C48.06 32.2187 44.5984 32.1713 41.1301 32.2458C37.4877 32.3271 33.8454 32.3135 30.1963 32.3339C28.9844 32.3406 27.7658 32.3068 26.5539 32.3542C25.6969 32.3881 24.8398 32.4219 23.9895 32.2932C20.2936 31.7106 17.3944 28.879 16.6847 25.1599C16.6244 24.855 16.5775 24.5434 16.524 24.2385C16.524 23.9743 16.4235 23.6018 16.5508 23.4731C16.6847 23.3376 17.0462 23.446 17.3074 23.446C29.8414 23.446 42.3755 23.446 54.9096 23.446C55.3649 23.5679 55.8335 23.534 56.2888 23.5814C58.2774 23.7914 60.1923 24.2453 61.9466 25.2411C64.5511 26.7179 66.2384 28.8722 66.6602 31.9206C66.7808 32.7945 66.7875 33.6752 66.7004 34.5491C66.5263 36.2901 65.9907 37.882 64.8257 39.2233C63.8414 40.3547 62.6831 41.2353 61.3507 41.8924C61.2369 41.9466 61.0427 41.9737 61.0427 42.1024C61.0427 42.2718 61.2569 42.2582 61.3775 42.3057C62.6228 42.7731 63.8012 43.3692 64.8926 44.1415C66.7004 45.4219 67.8922 47.1087 68.3074 49.3239C68.4814 50.2655 68.5149 51.2139 68.4948 52.1691C68.4279 55.4749 67.062 58.0898 64.357 59.9595C62.3014 61.3822 59.9714 62.0325 57.5342 62.3577C56.8981 62.4389 56.2621 62.4999 55.6193 62.5744C50.9726 62.5744 46.3259 62.5744 41.6792 62.5744C41.5854 62.5541 41.4984 62.5202 41.4046 62.5067C40.2597 62.3441 39.175 61.9918 38.1841 61.3822C35.7335 59.8579 34.314 57.6563 33.9726 54.7636C33.8654 53.8356 33.8922 53.8288 34.8028 53.8288C40.8422 53.8288 46.8816 53.8288 52.921 53.8288C53.932 53.8288 54.9163 53.6865 55.8469 53.2665C56.8044 52.833 57.4673 52.1352 57.6882 51.0716C58.0833 49.2087 57.2463 47.7116 55.4653 47.0883C54.5882 46.7767 53.6776 46.6751 52.7603 46.6751C47.0289 46.6683 41.3042 46.6751 35.5728 46.6751C32.7004 46.6751 29.8347 46.6751 26.9623 46.6751C25.9379 46.6751 25.3085 47.3119 25.3085 48.3416C25.3152 53.0836 25.3219 57.8324 25.3219 62.5812Z" fill="url(#paint0_radial)"/>
</g>
<defs>
<radialGradient id="paint0_radial" cx="0" cy="0" r="1" gradientUnits="userSpaceOnUse" gradientTransform="translate(42.5008 43.0015) scale(22.9284 23.1982)">
<stop stop-color="#FF4484"/>
<stop offset="0.2397" stop-color="#FE3D7F"/>
<stop offset="0.5915" stop-color="#FC2971"/>
<stop offset="1" stop-color="#F90A5A"/>
</radialGradient>
<clipPath id="clip0">
<rect width="85" height="86" fill="white"/>
</clipPath>
</defs>
</svg>
