<svg width="56" height="51" viewBox="0 0 56 51" fill="none" xmlns="http://www.w3.org/2000/svg">
<path d="M28.1554 7.77219C28.7867 7.07412 29.3518 6.37606 29.9831 5.75622C35.1172 0.73136 43.2454 0.201794 48.9387 4.59479C53.147 7.83838 55.0468 12.1953 54.6801 17.4969C54.5298 19.6273 53.7843 21.6131 52.8885 23.5388C51.3735 26.7945 49.2753 29.6649 46.9848 32.403C43.5159 36.5493 39.6382 40.2864 35.49 43.7346C33.2235 45.6181 30.8548 47.3934 28.5402 49.2228C28.2937 49.4154 28.1134 49.4515 27.8428 49.2469C21.3018 44.4206 15.1817 39.1249 9.84912 32.9627C7.71489 30.4954 5.76101 27.8897 4.20994 25.0011C2.95946 22.6723 1.93743 20.2411 1.69094 17.5812C1.39636 14.3677 2.0216 11.3287 3.79511 8.60264C7.17983 3.39123 12.0134 1.11048 18.1636 1.78448C22.0774 2.21174 25.2336 4.14345 27.7045 7.20049C27.8488 7.38103 27.9871 7.56156 28.1554 7.77219Z" stroke="#C2FFA8" stroke-width="2" stroke-miterlimit="10"/>
</svg>
