<svg width="29" height="26" viewBox="0 0 29 26" fill="none" xmlns="http://www.w3.org/2000/svg">
<path d="M13.9935 6.31995C14.2312 6.05692 14.444 5.79388 14.6818 5.56032C16.6154 3.66689 19.6767 3.46734 21.8209 5.12267C23.4059 6.3449 24.1214 7.98662 23.9832 9.98436C23.9266 10.7871 23.6459 11.5354 23.3085 12.261C22.7379 13.4878 21.9477 14.5694 21.085 15.6011C19.7786 17.1635 18.3181 18.5717 16.7558 19.871C15.9022 20.5807 15.0101 21.2497 14.1384 21.939C14.0455 22.0116 13.9776 22.0252 13.8757 21.9481C11.4122 20.1295 9.10724 18.134 7.09887 15.812C6.29507 14.8823 5.55919 13.9005 4.97502 12.812C4.50406 11.9345 4.11914 11.0184 4.02631 10.0161C3.91536 8.80522 4.15084 7.66009 4.81879 6.63288C6.09355 4.66916 7.91399 3.80975 10.2303 4.06372C11.7043 4.22471 12.893 4.95261 13.8236 6.10453C13.878 6.17256 13.9301 6.24059 13.9935 6.31995Z" stroke="#C2FFA8" stroke-width="2" stroke-miterlimit="10"/>
</svg>
