<svg width="189" height="189" viewBox="0 0 189 189" fill="none" xmlns="http://www.w3.org/2000/svg">
<g clip-path="url(#clip0)">
<path d="M12.9952 91.3709C12.9952 89.1424 12.9952 87.0191 12.9952 84.8661C10.8936 84.8661 8.84183 84.8661 6.72135 84.8661C6.72135 87.0016 6.72135 89.1371 6.72135 91.3089C4.44451 91.3089 2.23506 91.3089 0 91.3089C0 89.0872 0 86.8924 0 84.641C2.16092 84.641 4.29892 84.641 6.48679 84.641C6.48679 82.461 6.48679 80.3377 6.48679 78.1685C8.74073 78.1685 10.9461 78.1685 13.1974 78.1685C13.1974 80.3148 13.1974 82.4408 13.1974 84.5978C15.3111 84.5978 17.379 84.5978 19.482 84.5978C19.482 80.3619 19.482 76.1274 19.482 71.8295C15.1776 71.8295 10.876 71.8295 6.53263 71.8295C6.53263 67.4049 6.53263 63.0449 6.53263 58.6082C8.66928 58.6082 10.8032 58.6082 13.0032 58.6082C13.0032 56.3945 13.0032 54.255 13.0032 52.0939C19.6006 52.0939 26.1305 52.0939 32.6968 52.0939C32.6968 54.3157 32.6968 56.5226 32.6968 58.7875C26.2006 58.7875 19.7286 58.7875 13.2257 58.7875C13.2257 60.8946 13.2257 62.9452 13.2257 65.0591C15.3623 65.0591 17.499 65.0591 19.6936 65.0591C19.6936 67.2606 19.6936 69.3988 19.6936 71.5774C21.8181 71.5774 23.886 71.5774 26.0173 71.5774C26.0173 69.4473 26.0173 67.3064 26.0173 65.1224C32.6065 65.1224 39.1324 65.1224 45.7257 65.1224C45.7257 67.262 45.7257 69.3974 45.7257 71.5936C47.9284 71.5936 50.0664 71.5936 52.2705 71.5936C52.2705 73.7897 52.2705 75.9265 52.2705 78.0863C54.4031 78.0863 56.4696 78.0863 58.5901 78.0863C58.5901 75.9279 58.5901 73.8059 58.5901 71.63C60.7658 71.63 62.889 71.63 65.0499 71.63C65.0499 69.5107 65.0499 67.4426 65.0499 65.3152C60.7577 65.3152 56.4534 65.3152 52.11 65.3152C52.11 54.3777 52.11 43.4981 52.11 32.5565C54.2346 32.5565 56.3739 32.5565 58.5685 32.5565C58.5685 30.3738 58.5685 28.2519 58.5685 26.053C60.7578 26.053 62.8931 26.053 65.0728 26.053C65.0728 23.8515 65.0728 21.7282 65.0728 19.5468C67.2567 19.5468 69.3947 19.5468 71.5745 19.5468C71.5745 17.41 71.5745 15.3298 71.5745 13.22C67.3214 13.22 63.0885 13.22 58.7869 13.22C58.7869 15.3824 58.7869 17.5219 58.7869 19.6884C56.5249 19.6884 54.3316 19.6884 52.1046 19.6884C52.1046 13.1269 52.1046 6.58167 52.1046 0.00404445C54.3114 0.00404445 56.5047 0.00404445 58.768 0.00404445C58.768 2.15165 58.768 4.28847 58.768 6.46169C63.0723 6.46169 67.3039 6.46169 71.596 6.46169C71.596 4.32217 71.596 2.18266 71.596 0.0026963C76.0298 0.0026963 80.4042 0.0026963 84.8271 0.0026963C84.8271 6.50078 84.8271 12.9746 84.8271 19.4808C95.6263 19.4808 106.377 19.4808 117.157 19.4808C117.157 17.3965 117.157 15.3285 117.157 13.2038C108.506 13.2038 99.8686 13.2038 91.1791 13.2038C91.1791 8.77512 91.1791 4.40171 91.1791 0C93.4088 0 95.6007 0 97.8357 0C97.8357 2.15435 97.8357 4.28038 97.8357 6.4509C99.9441 6.4509 102.011 6.4509 104.139 6.4509C104.139 4.33296 104.139 2.19479 104.139 0.00808891C110.743 0.00808891 117.285 0.00808891 123.891 0.00808891C123.891 2.14491 123.891 4.28442 123.891 6.46034C126.004 6.46034 128.056 6.46034 130.171 6.46034C130.171 4.33161 130.171 2.19479 130.171 0.0134815C132.443 0.0134815 134.65 0.0134815 136.895 0.0134815C136.895 2.21366 136.895 4.42194 136.895 6.69222C134.743 6.69222 132.603 6.69222 130.436 6.69222C130.436 8.80478 130.436 10.8553 130.436 12.9746C132.583 12.9746 134.72 12.9746 136.894 12.9746C136.894 15.2355 136.894 17.4289 136.894 19.7005C134.761 19.7005 132.61 19.7005 130.418 19.7005C130.418 24.0685 130.418 28.3597 130.418 32.7183C128.242 32.7183 126.106 32.7183 123.937 32.7183C123.937 37.0189 123.937 41.2507 123.937 45.5203C126.011 45.5203 128.063 45.5203 130.189 45.5203C130.189 43.3929 130.189 41.2561 130.189 39.0883C132.458 39.0883 134.652 39.0883 136.89 39.0883C136.89 41.2777 136.89 43.4684 136.89 45.7266C134.757 45.7266 132.621 45.7266 130.425 45.7266C130.425 47.9295 130.425 50.0676 130.425 52.2557C128.242 52.2557 126.12 52.2557 123.923 52.2557C123.923 54.4397 123.923 56.5765 123.923 58.778C121.71 58.778 119.57 58.778 117.39 58.778C117.39 60.9701 117.39 63.0962 117.39 65.2802C115.212 65.2802 113.074 65.2802 110.902 65.2802C110.902 67.4062 110.902 69.4729 110.902 71.603C113.058 71.603 115.196 71.603 117.361 71.603C117.361 73.8585 117.361 76.0506 117.361 78.3087C116.83 78.3087 116.316 78.3087 115.804 78.3087C114.317 78.3087 112.831 78.3114 111.344 78.306C111.071 78.3047 110.859 78.3087 110.862 78.6875C110.874 80.637 110.867 82.5877 110.867 84.583C117.314 84.583 123.728 84.583 130.173 84.583C130.173 82.5122 130.173 80.4455 130.173 78.3222C128.032 78.3222 125.91 78.3222 123.749 78.3222C123.749 76.0735 123.749 73.8814 123.749 71.6515C125.94 71.6515 128.133 71.6515 130.395 71.6515C130.395 73.783 130.395 75.9198 130.395 78.0876C132.532 78.0876 134.598 78.0876 136.727 78.0876C136.727 73.756 136.727 69.45 136.727 65.0968C138.911 65.0968 141.035 65.0968 143.2 65.0968C143.2 62.9829 143.2 60.9189 143.2 58.7996C141.057 58.7996 138.934 58.7996 136.77 58.7996C136.77 56.5388 136.77 54.3318 136.77 52.0966C143.312 52.0966 149.842 52.0966 156.441 52.0966C156.441 54.2348 156.441 56.3729 156.441 58.5516C160.741 58.5516 164.971 58.5516 169.262 58.5516C169.262 56.4161 169.262 54.2793 169.262 52.1047C175.865 52.1047 182.407 52.1047 188.996 52.1047C188.996 56.4875 188.996 60.8636 188.996 65.264C186.76 65.264 184.565 65.264 182.304 65.264C182.304 63.1096 182.304 60.9728 182.304 58.8077C180.186 58.8077 178.133 58.8077 176.032 58.8077C176.032 63.0692 176.032 67.3132 176.032 71.599C178.172 71.599 180.297 71.599 182.486 71.599C182.486 73.7762 182.486 75.913 182.486 78.1159C184.686 78.1159 186.824 78.1159 189 78.1159C189 82.5433 189 86.9032 189 91.3278C186.839 91.3278 184.701 91.3278 182.532 91.3278C182.532 93.4592 182.532 95.5259 182.532 97.6331C184.682 97.6331 186.808 97.6331 188.987 97.6331C188.987 104.23 188.987 110.786 188.987 117.381C184.661 117.381 180.368 117.381 176.029 117.381C176.029 119.497 176.029 121.576 176.029 123.701C180.344 123.701 184.635 123.701 188.972 123.701C188.972 125.936 188.972 128.126 188.972 130.376C184.678 130.376 180.374 130.376 176.026 130.376C176.026 132.518 176.026 134.599 176.026 136.72C180.342 136.72 184.634 136.72 188.973 136.72C188.973 138.963 188.973 141.169 188.973 143.416C184.593 143.416 180.234 143.416 175.812 143.416C175.812 141.254 175.812 139.133 175.812 136.972C173.686 136.972 171.622 136.972 169.502 136.972C169.502 139.095 169.502 141.217 169.502 143.41C167.313 143.41 165.176 143.41 163 143.41C163 145.545 163 147.609 163 149.731C165.144 149.731 167.282 149.731 169.479 149.731C169.479 151.926 169.479 154.065 169.479 156.261C176.009 156.261 182.481 156.261 188.985 156.261C188.985 158.513 188.985 160.706 188.985 162.946C184.673 162.946 180.382 162.946 176.037 162.946C176.037 165.069 176.037 167.148 176.037 169.267C178.164 169.267 180.289 169.267 182.457 169.267C182.457 173.682 182.457 178.057 182.457 182.488C180.332 182.488 178.193 182.488 175.99 182.488C175.99 184.683 175.99 186.823 175.99 188.993C173.732 188.993 171.539 188.993 169.306 188.993C169.306 186.846 169.306 184.721 169.306 182.552C167.187 182.552 165.106 182.552 162.963 182.552C162.963 184.69 162.963 186.828 162.963 188.995C160.709 188.995 158.515 188.995 156.278 188.995C156.278 184.671 156.278 180.379 156.278 176.038C154.153 176.038 152.073 176.038 149.954 176.038C149.954 178.178 149.954 180.304 149.954 182.497C143.429 182.497 136.943 182.497 130.413 182.497C130.413 184.687 130.413 186.812 130.413 188.981C128.179 188.981 125.99 188.981 123.755 188.981C123.755 186.78 123.755 184.574 123.755 182.315C125.885 182.315 128.008 182.315 130.166 182.315C130.166 180.195 130.166 178.129 130.166 175.996C125.851 175.996 121.548 175.996 117.183 175.996C117.183 171.626 117.183 167.322 117.183 162.99C115.069 162.99 113.016 162.99 110.913 162.99C110.913 169.407 110.913 175.82 110.913 182.294C113.052 182.294 115.19 182.294 117.357 182.294C117.357 184.551 117.357 186.747 117.357 188.996C112.984 188.996 108.609 188.996 104.193 188.996C104.193 186.848 104.193 184.725 104.193 182.533C97.6659 182.533 91.1791 182.533 84.6599 182.533C84.6599 180.273 84.6599 178.081 84.6599 175.815C86.8006 175.815 88.9373 175.815 91.1238 175.815C91.1238 173.62 91.1238 171.497 91.1238 169.317C95.4793 169.317 99.7837 169.317 104.128 169.317C104.128 167.192 104.128 165.124 104.128 162.991C99.8389 162.991 95.5346 162.991 91.1912 162.991C91.1912 160.736 91.1912 158.544 91.1912 156.295C93.3063 156.295 95.4268 156.295 97.5958 156.295C97.5958 151.991 97.5958 147.744 97.5958 143.461C95.5414 143.461 93.4896 143.461 91.3651 143.461C91.3651 145.604 91.3651 147.741 91.3651 149.912C89.0977 149.912 86.9044 149.912 84.6519 149.912C84.6519 147.788 84.6519 145.65 84.6519 143.465C84.4429 143.449 84.2906 143.428 84.1369 143.427C82.3817 143.424 80.6266 143.439 78.8728 143.416C78.4333 143.411 78.2891 143.53 78.2945 143.984C78.3187 145.757 78.3053 147.53 78.3053 149.302C78.3053 149.496 78.3053 149.689 78.3053 149.914C76.0675 149.914 73.8742 149.914 71.619 149.914C71.619 147.77 71.619 145.633 71.619 143.442C65.0863 143.442 58.6144 143.442 52.0939 143.442C52.0939 141.266 52.0939 139.143 52.0939 136.951C45.5599 136.951 39.0744 136.951 32.5324 136.951C32.5324 134.744 32.5324 132.604 32.5324 130.435C30.4227 130.435 28.371 130.435 26.2478 130.435C26.2478 132.565 26.2478 134.702 26.2478 136.89C21.806 136.89 17.4343 136.89 13.0181 136.89C13.0181 132.519 13.0181 128.159 13.0181 123.755C15.245 123.755 17.4504 123.755 19.7084 123.755C19.7084 125.89 19.7084 128.012 19.7084 130.169C21.8275 130.169 23.8941 130.169 25.9971 130.169C25.9971 125.923 25.9971 121.691 25.9971 117.402C21.6766 117.402 17.3709 117.402 12.9979 117.402C12.9979 115.209 12.9979 113.069 12.9979 110.899C10.8801 110.899 8.8297 110.899 6.70922 110.899C6.70922 119.565 6.70922 128.217 6.70922 136.901C4.44451 136.901 2.24989 136.901 0.00674023 136.901C0.00674023 128.196 0.00674023 119.487 0.00674023 110.691C2.15687 110.691 4.30835 110.691 6.50162 110.691C6.50162 108.48 6.50162 106.356 6.50162 104.181C8.66658 104.181 10.7884 104.181 12.9763 104.181C12.9763 101.994 12.9763 99.8562 12.9763 97.683C15.2356 97.683 17.4289 97.683 19.6801 97.683C19.6801 99.8104 19.6801 101.949 19.6801 104.155C21.8734 104.155 24.01 104.155 26.2006 104.155C26.2006 106.345 26.2006 108.467 26.2006 110.635C28.3197 110.635 30.3849 110.635 32.5189 110.635C32.5189 108.498 32.5189 106.361 32.5189 104.181C36.8771 104.181 41.168 104.181 45.506 104.181C45.506 102.058 45.506 99.9802 45.506 97.8502C43.3626 97.8502 41.2408 97.8502 39.065 97.8502C39.065 95.6783 39.065 93.5563 39.065 91.3656C30.3755 91.3709 21.7305 91.3709 12.9952 91.3709ZM117.373 104.375C117.373 106.581 117.373 108.703 117.373 110.887C113.02 110.887 108.717 110.887 104.409 110.887C104.409 113.016 104.409 115.084 104.409 117.202C106.567 117.202 108.69 117.202 110.839 117.202C110.839 119.449 110.839 121.644 110.839 123.915C108.685 123.915 106.55 123.915 104.418 123.915C104.418 126.056 104.418 128.122 104.418 130.241C106.585 130.241 108.706 130.241 110.893 130.241C110.893 132.434 110.893 134.571 110.893 136.697C115.193 136.697 119.429 136.697 123.675 136.697C123.675 132.426 123.675 128.193 123.675 123.896C121.498 123.896 119.357 123.896 117.213 123.896C117.213 121.636 117.213 119.439 117.213 117.188C119.378 117.188 121.516 117.188 123.724 117.188C123.724 114.996 123.724 112.859 123.724 110.666C125.916 110.666 128.039 110.666 130.212 110.666C130.212 108.484 130.212 106.361 130.212 104.178C132.401 104.178 134.538 104.178 136.686 104.178C136.686 102.039 136.686 99.9573 136.686 97.8367C134.519 97.8367 132.394 97.8367 130.197 97.8367C130.197 95.6608 130.197 93.5239 130.197 91.3211C123.659 91.3211 117.192 91.3211 110.672 91.3211C110.672 89.129 110.672 87.0056 110.672 84.8702C108.55 84.8702 106.483 84.8702 104.372 84.8702C104.372 87.0272 104.372 89.1519 104.372 91.3399C102.19 91.3399 100.051 91.3399 97.8802 91.3399C97.8802 93.47 97.8802 95.5354 97.8802 97.6587C100.051 97.6587 102.19 97.6587 104.386 97.6587C104.386 99.8549 104.386 101.993 104.386 104.143C108.677 104.143 112.91 104.143 117.2 104.143C117.2 101.973 117.2 99.8346 117.2 97.6776C119.452 97.6776 121.645 97.6776 123.868 97.6776C123.868 99.9142 123.868 102.122 123.868 104.375C121.707 104.375 119.582 104.375 117.373 104.375ZM84.8675 39.2797C84.8675 47.9119 84.8675 56.4808 84.8675 65.1103C89.2056 65.1103 93.5099 65.1103 97.8169 65.1103C97.8169 67.3671 97.8169 69.5632 97.8169 71.8214C93.4856 71.8214 89.1826 71.8214 84.8702 71.8214C84.8702 73.9515 84.8702 76.0182 84.8702 78.0917C91.3085 78.0917 97.709 78.0917 104.172 78.0917C104.172 73.756 104.172 69.4514 104.172 65.0779C106.368 65.0779 108.501 65.0779 110.697 65.0779C110.697 62.8886 110.697 60.7666 110.697 58.5933C112.881 58.5933 115.004 58.5933 117.184 58.5933C117.184 56.4012 117.184 54.2631 117.184 52.0696C119.38 52.0696 121.518 52.0696 123.679 52.0696C123.679 49.9463 123.679 47.8796 123.679 45.7495C121.51 45.7495 119.373 45.7495 117.177 45.7495C117.177 39.215 117.177 32.7439 117.177 26.262C115.052 26.262 112.986 26.262 110.847 26.262C110.847 34.9508 110.847 43.5992 110.847 52.2988C108.652 52.2988 106.531 52.2988 104.36 52.2988C104.36 54.4747 104.36 56.5981 104.36 58.7551C99.9387 58.7551 95.567 58.7551 91.1279 58.7551C91.1279 52.2287 91.1279 45.763 91.1279 39.2811C89.006 39.2797 86.953 39.2797 84.8675 39.2797ZM71.7942 78.3222C67.4319 78.3222 63.1424 78.3222 58.8274 78.3222C58.8274 80.4469 58.8274 82.5244 58.8274 84.6612C63.1761 84.6612 67.4805 84.6612 71.836 84.6612C71.836 91.1903 71.836 97.6614 71.836 104.134C73.9524 104.134 76.0163 104.134 78.1327 104.134C78.1327 97.6196 78.1327 91.1471 78.1327 84.6154C80.3233 84.6154 82.4613 84.6154 84.5912 84.6154C84.5912 82.4893 84.5912 80.4226 84.5912 78.3087C82.4303 78.3087 80.3058 78.3087 78.1678 78.3087C78.1678 76.0559 78.1678 73.8517 78.1678 71.6003C80.3381 71.6003 82.4613 71.6003 84.5818 71.6003C84.5818 69.4716 84.5818 67.3914 84.5818 65.268C82.4128 65.268 80.2909 65.268 78.1031 65.268C78.1031 60.923 78.1031 56.621 78.1031 52.3083C71.6365 52.3083 65.236 52.3083 58.8179 52.3083C58.8179 54.4046 58.8179 56.4727 58.8179 58.6109C60.9883 58.6109 63.1236 58.6109 65.3074 58.6109C65.3074 60.8043 65.3074 62.9263 65.3074 65.1049C67.4953 65.1049 69.6346 65.1049 71.7942 65.1049C71.7942 69.5215 71.7942 73.8814 71.7942 78.3222ZM169.329 123.909C169.329 121.63 169.329 119.422 169.329 117.172C171.497 117.172 173.621 117.172 175.762 117.172C175.762 115.062 175.762 112.995 175.762 110.923C171.479 110.923 167.234 110.923 162.944 110.923C162.944 113.099 162.944 115.222 162.944 117.412C160.761 117.412 158.626 117.412 156.443 117.412C156.443 119.603 156.443 121.727 156.443 123.918C154.26 123.918 152.124 123.918 149.985 123.918C149.985 126.052 149.985 128.117 149.985 130.227C154.316 130.227 158.607 130.227 162.961 130.227C162.961 132.407 162.961 134.545 162.961 136.692C165.105 136.692 167.185 136.692 169.304 136.692C169.304 134.523 169.304 132.397 169.304 130.203C171.477 130.203 173.613 130.203 175.769 130.203C175.769 128.082 175.769 126.031 175.769 123.91C173.601 123.909 171.462 123.909 169.329 123.909ZM136.947 156.255C137.104 156.264 137.208 156.276 137.312 156.276C143.468 156.278 149.625 156.274 155.78 156.287C156.207 156.288 156.275 156.129 156.275 155.753C156.265 149.633 156.268 143.511 156.267 137.39C156.267 137.253 156.242 137.115 156.23 136.983C149.781 136.983 143.367 136.983 136.947 136.983C136.947 143.415 136.947 149.803 136.947 156.255ZM143.394 104.389C141.219 104.389 139.098 104.389 136.969 104.389C136.969 106.509 136.969 108.575 136.969 110.699C139.129 110.699 141.251 110.699 143.427 110.699C143.427 112.883 143.427 115.005 143.427 117.146C145.562 117.146 147.642 117.146 149.766 117.146C149.766 114.978 149.766 112.854 149.766 110.664C151.953 110.664 154.094 110.664 156.233 110.664C156.233 106.364 156.233 102.129 156.233 97.834C154.059 97.834 151.921 97.834 149.735 97.834C149.735 95.6513 149.735 93.528 149.735 91.375C145.454 91.375 141.224 91.375 136.965 91.375C136.965 93.4714 136.965 95.5367 136.965 97.6574C139.121 97.6574 141.244 97.6574 143.396 97.6574C143.394 99.9088 143.394 102.105 143.394 104.389ZM175.991 104.178C175.991 106.368 175.991 108.491 175.991 110.65C178.11 110.65 180.177 110.65 182.256 110.65C182.256 106.377 182.256 102.129 182.256 97.8313C180.091 97.8313 177.968 97.8313 175.782 97.8313C175.782 93.4781 175.782 89.1735 175.782 84.8755C173.652 84.8755 171.585 84.8755 169.474 84.8755C169.474 87.038 169.474 89.1627 169.474 91.3521C165.127 91.3521 160.823 91.3521 156.503 91.3521C156.503 93.4821 156.503 95.5462 156.503 97.6709C160.847 97.6709 165.152 97.6709 169.514 97.6709C169.514 99.871 169.514 102.009 169.514 104.18C171.68 104.178 173.789 104.178 175.991 104.178ZM52.2974 104.398C52.2974 106.513 52.2974 108.567 52.2974 110.693C54.4529 110.693 56.5896 110.693 58.8004 110.693C58.8004 112.897 58.8004 115.03 58.8004 117.208C60.9977 117.208 63.1209 117.208 65.2993 117.208C65.2993 119.392 65.2993 121.529 65.2993 123.687C67.4225 123.687 69.489 123.687 71.5799 123.687C71.5799 117.245 71.5799 110.833 71.5799 104.399C65.1456 104.398 58.7451 104.398 52.2974 104.398ZM136.716 117.396C136.716 115.195 136.716 113.057 136.716 110.906C134.59 110.906 132.524 110.906 130.396 110.906C130.396 113.078 130.396 115.214 130.396 117.419C128.202 117.419 126.067 117.419 123.954 117.419C123.954 119.55 123.954 121.615 123.954 123.729C128.293 123.729 132.583 123.729 136.944 123.729C136.944 125.913 136.944 128.049 136.944 130.184C139.071 130.184 141.124 130.184 143.193 130.184C143.193 125.912 143.193 121.668 143.193 117.397C141.034 117.396 138.923 117.396 136.716 117.396ZM110.672 136.984C108.522 136.984 106.458 136.984 104.414 136.984C104.414 143.432 104.414 149.832 104.414 156.24C108.686 156.24 112.916 156.24 117.156 156.24C117.156 154.134 117.156 152.066 117.156 149.936C114.99 149.936 112.853 149.936 110.673 149.936C110.672 145.583 110.672 141.292 110.672 136.984ZM45.7527 117.412C45.7527 119.589 45.7527 121.714 45.7527 123.903C41.4025 123.903 37.0982 123.903 32.7656 123.903C32.7656 126.033 32.7656 128.099 32.7656 130.171C39.2119 130.171 45.6246 130.171 52.0359 130.171C52.0359 125.896 52.0359 121.663 52.0359 117.413C49.9451 117.412 47.8893 117.412 45.7527 117.412ZM71.5947 130.401C69.4149 130.401 67.2782 130.401 65.0715 130.401C65.0715 128.208 65.0715 126.072 65.0715 123.941C62.9483 123.941 60.8953 123.941 58.8287 123.941C58.8287 128.219 58.8287 132.463 58.8287 136.697C63.1087 136.697 67.3416 136.697 71.5947 136.697C71.5947 134.607 71.5947 132.553 71.5947 130.401ZM104.153 26.2566C97.7185 26.2566 91.3031 26.2566 84.8635 26.2566C84.8635 28.3449 84.8635 30.4116 84.8635 32.4918C91.3058 32.4918 97.7198 32.4918 104.153 32.4918C104.153 30.4008 104.153 28.3476 104.153 26.2566ZM91.3422 117.193C91.3422 117.444 91.3422 117.637 91.3422 117.83C91.3422 119.601 91.3543 121.373 91.3341 123.144C91.3287 123.574 91.4312 123.735 91.8949 123.727C93.6487 123.7 95.4025 123.717 97.1563 123.714C97.3086 123.714 97.4623 123.693 97.6147 123.681C97.6147 119.394 97.6147 115.16 97.6147 110.899C93.3508 110.899 89.122 110.899 84.877 110.899C84.877 113.009 84.877 115.088 84.877 117.191C87.0285 117.193 89.1382 117.193 91.3422 117.193ZM26.2545 78.0728C32.7063 78.0728 39.1162 78.0728 45.5248 78.0728C45.5248 75.9724 45.5248 73.9218 45.5248 71.8443C39.0893 71.8443 32.6888 71.8443 26.2545 71.8443C26.2545 73.9164 26.2545 75.9683 26.2545 78.0728ZM156.233 71.5976C156.233 67.3051 156.233 63.0719 156.233 58.8131C154.129 58.8131 152.061 58.8131 149.988 58.8131C149.988 63.0921 149.988 67.3415 149.988 71.5976C152.084 71.5976 154.138 71.5976 156.233 71.5976ZM84.8581 130.436C84.8581 134.707 84.8581 138.943 84.8581 143.205C86.953 143.205 89.0343 143.205 91.1157 143.205C91.1157 138.928 91.1157 134.696 91.1157 130.436C89.0276 130.436 86.9745 130.436 84.8581 130.436ZM32.771 110.904C32.771 113.025 32.771 115.09 32.771 117.161C37.0402 117.161 41.2718 117.161 45.5248 117.161C45.5248 115.066 45.5248 113.002 45.5248 110.904C41.261 110.904 37.0322 110.904 32.771 110.904ZM84.6087 19.7518C80.3206 19.7518 76.0918 19.7518 71.8495 19.7518C71.8495 21.8495 71.8495 23.9135 71.8495 25.9897C76.1228 25.9897 80.361 25.9897 84.6087 25.9897C84.6087 23.8906 84.6087 21.8387 84.6087 19.7518ZM58.8112 32.7587C58.8112 37.0189 58.8112 41.2521 58.8112 45.523C60.9033 45.523 62.9672 45.523 65.0432 45.523C65.0432 41.248 65.0432 37.0041 65.0432 32.7587C62.9456 32.7587 60.8939 32.7587 58.8112 32.7587ZM162.728 84.6086C162.728 80.3269 162.728 76.0964 162.728 71.8565C160.629 71.8565 158.565 71.8565 156.499 71.8565C156.499 76.1261 156.499 80.3552 156.499 84.6086C158.584 84.6086 160.634 84.6086 162.728 84.6086ZM71.8454 45.5082C73.9632 45.5082 76.0271 45.5082 78.0734 45.5082C78.0734 41.2278 78.0734 36.9987 78.0734 32.7587C75.9758 32.7587 73.9255 32.7587 71.8454 32.7587C71.8454 37.0189 71.8454 41.2507 71.8454 45.5082ZM130.177 156.512C125.883 156.512 121.654 156.512 117.434 156.512C117.434 158.619 117.434 160.682 117.434 162.73C121.707 162.73 125.937 162.73 130.177 162.73C130.177 160.638 130.177 158.587 130.177 156.512ZM84.8635 97.8704C84.8635 99.9937 84.8635 102.06 84.8635 104.147C86.9584 104.147 89.0236 104.147 91.1076 104.147C91.1076 102.039 91.1076 99.96 91.1076 97.8704C89.0114 97.8704 86.9584 97.8704 84.8635 97.8704ZM149.961 91.1229C152.08 91.1229 154.145 91.1229 156.238 91.1229C156.238 89.0238 156.238 86.9598 156.238 84.8742C154.133 84.8742 152.054 84.8742 149.961 84.8742C149.961 86.9665 149.961 89.0198 149.961 91.1229ZM45.7904 78.3411C45.7904 80.4671 45.7904 82.5325 45.7904 84.5992C47.896 84.5992 49.9626 84.5992 52.0453 84.5992C52.0453 82.5028 52.0453 80.4361 52.0453 78.3411C49.9545 78.3411 47.8893 78.3411 45.7904 78.3411ZM52.2947 91.1054C52.3985 91.1296 52.4484 91.1512 52.4996 91.1512C54.3977 91.1539 56.2957 91.1458 58.1938 91.1633C58.6076 91.1674 58.5995 90.9382 58.5995 90.6483C58.5955 88.858 58.5982 87.0663 58.5955 85.2759C58.5955 85.1384 58.5699 85.0009 58.5577 84.8715C56.4507 84.8715 54.3828 84.8715 52.2961 84.8715C52.2947 86.9638 52.2947 89.0184 52.2947 91.1054ZM149.707 84.614C149.707 82.4961 149.707 80.4293 149.707 78.3613C149.625 78.3411 149.574 78.3168 149.524 78.3168C147.626 78.3141 145.729 78.3222 143.831 78.3047C143.421 78.3006 143.421 78.5231 143.421 78.8156C143.427 80.5884 143.423 82.3599 143.425 84.1327C143.425 84.2878 143.446 84.4441 143.456 84.614C145.555 84.614 147.61 84.614 149.707 84.614ZM117.42 25.9654C117.481 25.9937 117.513 26.0207 117.544 26.0207C119.477 26.0261 121.412 26.0247 123.345 26.0395C123.736 26.0422 123.714 25.809 123.713 25.5461C123.71 23.9526 123.711 22.3591 123.711 20.7642C123.711 20.4299 123.711 20.0955 123.711 19.7464C121.573 19.7464 119.506 19.7464 117.419 19.7464C117.42 21.8454 117.42 23.9122 117.42 25.9654ZM117.427 143.431C117.427 145.58 117.427 147.648 117.427 149.712C119.531 149.712 121.598 149.712 123.711 149.712C123.711 148.156 123.716 146.638 123.709 145.119C123.706 144.585 123.881 143.825 123.606 143.578C123.29 143.292 122.566 143.439 122.018 143.435C120.5 143.424 118.983 143.431 117.427 143.431ZM149.707 169.264C149.707 167.148 149.707 165.082 149.707 163.005C147.611 163.005 145.548 163.005 143.455 163.005C143.455 165.105 143.455 167.171 143.455 169.264C145.548 169.264 147.612 169.264 149.707 169.264ZM169.534 175.993C169.534 178.135 169.534 180.213 169.534 182.284C171.633 182.284 173.685 182.284 175.747 182.284C175.768 182.193 175.795 182.126 175.795 182.057C175.797 180.162 175.792 178.266 175.805 176.371C175.808 175.989 175.592 175.99 175.321 175.992C173.837 175.996 172.353 175.994 170.869 175.993C170.427 175.993 169.984 175.993 169.534 175.993ZM104.136 110.652C104.136 108.552 104.136 106.485 104.136 104.41C102.034 104.41 99.9656 104.41 97.8829 104.41C97.8829 106.508 97.8829 108.572 97.8829 110.652C99.9899 110.652 102.059 110.652 104.136 110.652ZM97.8775 45.5095C99.9859 45.5095 102.063 45.5095 104.142 45.5095C104.142 43.4105 104.142 41.3613 104.142 39.3027C102.034 39.3027 99.9562 39.3027 97.8775 39.3027C97.8775 41.399 97.8775 43.4496 97.8775 45.5095ZM91.3786 91.1202C93.4775 91.1202 95.5387 91.1202 97.6174 91.1202C97.6174 89.0184 97.6174 86.953 97.6174 84.8675C95.5225 84.8675 93.4586 84.8675 91.3786 84.8675C91.3786 86.9638 91.3786 89.0279 91.3786 91.1202ZM39.2874 91.1242C41.3985 91.1242 43.4462 91.1242 45.5275 91.1242C45.5275 89.0279 45.5275 86.9625 45.5275 84.8675C43.4448 84.8675 41.3809 84.8675 39.2874 84.8675C39.2874 86.9544 39.2874 89.0198 39.2874 91.1242ZM117.413 12.9611C119.523 12.9611 121.588 12.9611 123.671 12.9611C123.671 10.8621 123.671 8.80073 123.671 6.72997C121.565 6.72997 119.502 6.72997 117.413 6.72997C117.413 8.81421 117.413 10.8634 117.413 12.9611ZM169.534 71.8389C169.534 73.965 169.534 76.029 169.534 78.0849C171.633 78.0849 173.685 78.0849 175.757 78.0849C175.757 75.9845 175.757 73.9205 175.757 71.8389C173.662 71.8389 171.609 71.8389 169.534 71.8389ZM156.491 169.263C158.584 169.263 160.648 169.263 162.713 169.263C162.713 167.155 162.713 165.077 162.713 163.004C160.614 163.004 158.565 163.004 156.491 163.004C156.491 165.104 156.491 167.171 156.491 169.263ZM52.0507 91.3844C49.9397 91.3844 47.8745 91.3844 45.7918 91.3844C45.7918 93.4862 45.7918 95.5489 45.7918 97.6183C47.8974 97.6183 49.9626 97.6183 52.0507 97.6183C52.0507 95.5327 52.0507 93.4835 52.0507 91.3844ZM78.1044 123.946C75.988 123.946 73.9268 123.946 71.8562 123.946C71.8562 126.048 71.8562 128.111 71.8562 130.167C73.9605 130.167 76.0244 130.167 78.1044 130.167C78.1044 128.084 78.1044 126.047 78.1044 123.946ZM71.84 12.949C73.9645 12.949 76.0271 12.949 78.0842 12.949C78.0842 10.8499 78.0842 8.80073 78.0842 6.73401C75.9839 6.73401 73.9228 6.73401 71.84 6.73401C71.84 8.82365 71.84 10.8728 71.84 12.949Z" fill="white"/>
<path d="M143.273 0.0012207C158.461 0.0012207 173.615 0.0012207 188.796 0.0012207C188.796 15.1828 188.796 30.3387 188.796 45.5269C173.613 45.5269 158.459 45.5269 143.273 45.5269C143.273 30.3387 143.273 15.1841 143.273 0.0012207ZM182.26 39.0315C182.26 28.1735 182.26 17.3546 182.26 6.5438C171.406 6.5438 160.589 6.5438 149.768 6.5438C149.768 17.3937 149.768 28.1991 149.768 39.0315C160.6 39.0315 171.404 39.0315 182.26 39.0315Z" fill="white"/>
<path d="M45.5255 143.28C45.5255 158.472 45.5255 173.626 45.5255 188.808C30.3492 188.808 15.208 188.808 0.0195312 188.808C0.0195312 173.648 0.0195312 158.479 0.0195312 143.28C15.1756 143.28 30.3168 143.28 45.5255 143.28ZM39.0306 149.788C28.1762 149.788 17.3567 149.788 6.54407 149.788C6.54407 160.644 6.54407 171.463 6.54407 182.279C17.3918 182.279 28.1964 182.279 39.0306 182.279C39.0306 171.444 39.0306 160.637 39.0306 149.788Z" fill="white"/>
<path d="M0.00585938 0C15.2091 0 30.3504 0 45.5267 0C45.5267 15.1829 45.5267 30.3374 45.5267 45.5257C30.3436 45.5257 15.1889 45.5257 0.00585938 45.5257C0.00585937 30.3415 0.00585938 15.1842 0.00585938 0ZM39.0453 6.53584C28.1773 6.53584 17.3606 6.53584 6.54523 6.53584C6.54523 17.3898 6.54523 28.2087 6.54523 39.0141C17.4051 39.0141 28.2231 39.0141 39.0453 39.0141C39.0453 28.1764 39.0453 17.3831 39.0453 6.53584Z" fill="white"/>
<path d="M71.7844 169.498C69.6208 169.498 67.4828 169.498 65.3178 169.498C65.3178 171.609 65.3178 173.662 65.3178 175.783C67.4545 175.783 69.5911 175.783 71.8006 175.783C71.8006 177.984 71.8006 180.118 71.8006 182.306C73.9952 182.306 76.117 182.306 78.2725 182.306C78.2725 184.554 78.2725 186.747 78.2725 188.997C73.8995 188.997 69.5264 188.997 65.0981 188.997C65.0981 184.675 65.0981 180.369 65.0981 176.001C60.7385 176.001 56.4355 176.001 52.1016 176.001C52.1016 169.41 52.1016 162.884 52.1016 156.317C54.3029 156.317 56.4948 156.317 58.765 156.317C58.765 158.446 58.765 160.581 58.765 162.743C60.8976 162.743 62.9506 162.743 65.0779 162.743C65.0779 160.607 65.0779 158.471 65.0779 156.307C67.3466 156.307 69.5426 156.307 71.7844 156.307C71.7844 160.69 71.7844 165.065 71.7844 169.498Z" fill="white"/>
<path d="M78.1367 156.306C80.388 156.306 82.5812 156.306 84.8068 156.306C84.8068 160.695 84.8068 165.057 84.8068 169.457C82.5947 169.457 80.3893 169.457 78.1367 169.457C78.1367 165.082 78.1367 160.722 78.1367 156.306Z" fill="white"/>
<path d="M39.0898 52.0911C41.3128 52.0911 43.4899 52.0911 45.7087 52.0911C45.7087 54.3101 45.7087 56.5143 45.7087 58.7496C43.4993 58.7496 41.3101 58.7496 39.0898 58.7496C39.0898 56.5305 39.0898 54.3384 39.0898 52.0911Z" fill="white"/>
<path d="M149.91 149.925C147.687 149.925 145.494 149.925 143.27 149.925C143.27 147.706 143.27 145.514 143.27 143.286C145.49 143.286 147.683 143.286 149.91 143.286C149.91 145.484 149.91 147.679 149.91 149.925Z" fill="white"/>
<path d="M156.291 32.4891C156.291 26.0004 156.291 19.5428 156.291 13.042C162.776 13.042 169.247 13.042 175.759 13.042C175.759 19.5064 175.759 25.9762 175.759 32.4891C169.288 32.4891 162.818 32.4891 156.291 32.4891Z" fill="white"/>
<path d="M32.5128 156.319C32.5128 162.811 32.5128 169.27 32.5128 175.769C26.0246 175.769 19.554 175.769 13.043 175.769C13.043 169.301 13.043 162.831 13.043 156.319C19.5163 156.319 25.9855 156.319 32.5128 156.319Z" fill="white"/>
<path d="M13.0234 32.4945C13.0234 25.991 13.0234 19.5334 13.0234 13.0366C19.5143 13.0366 25.9849 13.0366 32.4933 13.0366C32.4933 19.5172 32.4933 25.987 32.4933 32.4945C26.0199 32.4945 19.5493 32.4945 13.0234 32.4945Z" fill="white"/>
</g>
<defs>
<clipPath id="clip0">
<rect width="189" height="189" fill="white"/>
</clipPath>
</defs>
</svg>
