<svg width="106" height="106" viewBox="0 0 106 106" fill="none" xmlns="http://www.w3.org/2000/svg">
<path d="M53 106C82.2711 106 106 82.2711 106 53C106 23.7289 82.2711 0 53 0C23.7289 0 0 23.7289 0 53C0 82.2711 23.7289 106 53 106Z" fill="#FB4884"/>
<path d="M14.1497 60.2471C14.142 80.6217 31.8023 97.3287 53.1149 97.2713C74.2551 97.2139 91.7355 80.6753 91.8503 60.4654" fill="$green"/>
<path d="M43.2606 53C46.1742 53 48.5361 49.9148 48.5361 46.1089C48.5361 42.3031 46.1742 39.2179 43.2606 39.2179C40.347 39.2179 37.9851 42.3031 37.9851 46.1089C37.9851 49.9148 40.347 53 43.2606 53Z" fill="$green"/>
<path d="M62.7394 53C65.6529 53 68.0149 49.9148 68.0149 46.1089C68.0149 42.3031 65.6529 39.2179 62.7394 39.2179C59.8258 39.2179 57.4639 42.3031 57.4639 46.1089C57.4639 49.9148 59.8258 53 62.7394 53Z" fill="$green"/>
</svg>
