<svg width="33" height="29" viewBox="0 0 33 29" fill="none" xmlns="http://www.w3.org/2000/svg">
<g clip-path="url(#clip0)">
<path d="M10.9926 0.0260534C10.9926 1.30969 10.9926 2.55091 10.9926 3.83944C8.80831 3.83944 6.64072 3.83944 4.41932 3.83944C4.41932 5.78854 4.41932 7.69197 4.41932 9.62802C2.92539 9.62802 1.48714 9.62802 0.0117699 9.62802C0.0117699 9.01475 0.0117699 8.41941 0.0117699 7.82408C0.0117699 6.53556 0.00620247 5.24866 0.0136257 3.96014C0.0266164 1.69298 1.89356 0.0276845 4.46943 0.00811193C6.52195 -0.00819852 8.57448 0.00484984 10.6251 0.00484984C10.7309 0.00484984 10.8386 0.0178982 10.9926 0.0260534Z" fill="#141414"/>
<path d="M28.6121 3.86397C26.387 3.86397 24.2324 3.86397 22.0352 3.86397C22.0352 2.56891 22.0352 1.30812 22.0352 0.00491039C22.204 0.00491039 22.3544 0.00491039 22.5065 0.00491039C24.4663 0.00491039 26.426 0.0016483 28.3857 0.00654143C31.136 0.0130656 32.99 1.649 32.9974 4.07274C33.0011 5.79512 32.9974 7.51588 32.9974 9.23826C32.9974 9.35896 32.9974 9.47966 32.9974 9.63134C31.5276 9.63134 30.0894 9.63134 28.6121 9.63134C28.6121 7.71323 28.6121 5.81959 28.6121 3.86397Z" fill="#141414"/>
<path d="M4.39299 25.1426C5.55287 25.1426 6.64408 25.1426 7.7353 25.1426C8.80981 25.1426 9.88618 25.1426 10.9848 25.1426C10.9848 26.4441 10.9848 27.6984 10.9848 28.9641C10.8865 28.9772 10.8122 28.9935 10.738 28.9935C8.56299 28.9935 6.38613 29.0163 4.21298 28.9804C2.08993 28.9462 0.165455 27.4374 0.0596736 25.5813C-0.0572424 23.5278 0.0336922 21.4646 0.0336922 19.3719C1.47937 19.3719 2.91762 19.3719 4.39299 19.3719C4.39299 21.2819 4.39299 23.1771 4.39299 25.1426Z" fill="#141414"/>
<path d="M22.0254 28.9772C22.0254 27.7017 22.0254 26.4474 22.0254 25.1491C24.2115 25.1491 26.3791 25.1491 28.5987 25.1491C28.5987 23.2 28.5987 21.2966 28.5987 19.3654C30.0796 19.3654 31.5067 19.3654 32.9747 19.3654C32.9821 19.5041 32.9969 19.6345 32.9969 19.765C32.9988 21.5005 33.0025 23.2359 32.9969 24.9697C32.9895 27.3315 31.1133 28.9853 28.4298 28.9935C26.4404 29 24.4491 28.9951 22.4596 28.9935C22.3242 28.9951 22.1887 28.9837 22.0254 28.9772Z" fill="#141414"/>
<path d="M18.733 16.4491C17.2465 16.4491 15.7619 16.4491 14.2754 16.4491L14.2847 16.4572C14.2847 15.1524 14.2847 13.8459 14.2847 12.5411L14.2754 12.5493C15.7619 12.5493 17.2465 12.5493 18.733 12.5493L18.7238 12.5411C18.7238 13.8459 18.7238 15.1524 18.7238 16.4572L18.733 16.4491Z" fill="#141414"/>
<path d="M14.2862 12.5427C12.8536 12.5427 11.4209 12.5427 9.94922 12.5427C9.94922 11.277 9.94922 10.0146 9.94922 8.72934C11.3875 8.72934 12.8146 8.72934 14.2751 8.72934C14.2751 10.013 14.2751 11.2819 14.2751 12.5509L14.2862 12.5427Z" fill="#141414"/>
<path d="M18.7318 12.5509C18.7318 11.2918 18.7318 10.0326 18.7318 8.74081C20.1719 8.74081 21.6083 8.74081 23.0707 8.74081C23.0707 10.0049 23.0707 11.2575 23.0707 12.5428C21.6083 12.5428 20.1645 12.5428 18.7207 12.5428C18.7226 12.5411 18.7318 12.5509 18.7318 12.5509Z" fill="#141414"/>
<path d="M14.2764 16.4491C14.2764 17.7083 14.2764 18.9675 14.2764 20.2592C12.8363 20.2592 11.3999 20.2592 9.9375 20.2592C9.9375 18.9952 9.9375 17.7425 9.9375 16.4573C11.3999 16.4573 12.8437 16.4573 14.2875 16.4573C14.2857 16.4589 14.2764 16.4491 14.2764 16.4491Z" fill="#141414"/>
<path d="M18.7227 16.4573C20.1553 16.4573 21.588 16.4573 23.0597 16.4573C23.0597 17.723 23.0597 18.9854 23.0597 20.2707C21.6214 20.2707 20.1943 20.2707 18.7338 20.2707C18.7338 18.987 18.7338 17.7181 18.7338 16.4491C18.7319 16.4491 18.7227 16.4573 18.7227 16.4573Z" fill="#141414"/>
</g>
<defs>
<clipPath id="clip0">
<rect width="33" height="29" fill="white"/>
</clipPath>
</defs>
</svg>
