<svg width="32" height="32" viewBox="0 0 32 32" fill="none" xmlns="http://www.w3.org/2000/svg">
<circle opacity="0.5" cx="16" cy="16" r="16" fill="white"/>
<path d="M11.92 23.04C11.792 23.04 11.68 22.992 11.584 22.896C11.488 22.8 11.44 22.68 11.44 22.536V19.944C11.44 19.72 11.496 19.544 11.608 19.416C11.72 19.288 11.888 19.16 12.112 19.032L17.32 15.576L12.112 12.144C11.904 12.016 11.736 11.888 11.608 11.76C11.496 11.616 11.44 11.432 11.44 11.208V8.616C11.44 8.472 11.488 8.36 11.584 8.28C11.68 8.184 11.792 8.136 11.92 8.136C12.032 8.136 12.168 8.184 12.328 8.28L20.992 14.16C21.232 14.32 21.408 14.48 21.52 14.64C21.632 14.8 21.688 14.992 21.688 15.216V15.96C21.688 16.184 21.632 16.376 21.52 16.536C21.408 16.68 21.232 16.832 20.992 16.992L12.328 22.872C12.184 22.984 12.048 23.04 11.92 23.04Z" fill="#141414"/>
</svg>
