<svg width="201" height="201" viewBox="0 0 201 201" fill="none" xmlns="http://www.w3.org/2000/svg">
<path d="M100.5 201C156.005 201 201 156.005 201 100.5C201 44.9954 156.005 0 100.5 0C44.9954 0 0 44.9954 0 100.5C0 156.005 44.9954 201 100.5 201Z" fill="#FB4884"/>
<path d="M97.2078 158.996C87.8265 158.996 79.7415 157.448 72.953 154.352C66.1645 151.257 60.9002 146.715 57.1603 140.728C53.4203 134.741 51.346 127.308 50.9453 118.422C50.8432 114.328 50.796 109.944 50.796 105.246C50.796 100.555 50.8432 96.0686 50.9453 91.7708C51.346 83.0887 53.436 75.703 57.231 69.6138C61.0259 63.5245 66.3138 58.936 73.1023 55.8403C79.8908 52.7446 87.9208 51.1968 97.2078 51.1968C103.792 51.1968 109.881 52.0218 115.468 53.6639C121.054 55.3139 125.949 57.7024 130.137 60.8531C134.325 63.996 137.593 67.7909 139.943 72.2302C142.284 76.6695 143.51 81.6901 143.612 87.2765C143.706 88.1722 143.439 88.9265 142.787 89.5236C142.135 90.1208 141.365 90.4194 140.469 90.4194H120.261C118.964 90.4194 117.966 90.1444 117.267 89.5944C116.568 89.0444 115.971 88.0229 115.468 86.5222C114.069 81.2344 111.798 77.6123 108.656 75.6716C105.513 73.7309 101.647 72.7488 97.0507 72.7488C91.5586 72.7488 87.2215 74.273 84.0236 77.3137C80.8258 80.3623 79.0815 85.4222 78.783 92.5093C78.4844 100.696 78.4844 109.08 78.783 117.66C79.0815 124.747 80.8258 129.815 84.0236 132.855C87.2136 135.904 91.5586 137.42 97.0507 137.42C101.639 137.42 105.528 136.423 108.726 134.427C111.916 132.431 114.163 128.841 115.46 123.647C115.861 122.146 116.434 121.125 117.181 120.575C117.927 120.025 118.948 119.75 120.253 119.75H140.461C141.357 119.75 142.135 120.048 142.779 120.646C143.431 121.243 143.698 121.989 143.604 122.893C143.502 128.479 142.284 133.5 139.935 137.939C137.585 142.378 134.325 146.173 130.129 149.316C125.933 152.459 121.046 154.855 115.46 156.505C109.881 158.179 103.8 158.996 97.2078 158.996Z" fill="#C3FDAB"/>
<path d="M129.556 51.6918V51.4953C129.556 51.3539 129.666 51.2361 129.807 51.2282C134.451 51.0003 138.583 49.2482 141.695 46.1368C144.806 43.0254 146.558 38.9083 146.786 34.2648C146.794 34.1155 146.92 34.0055 147.069 34.0133H147.093C147.226 34.0212 147.336 34.1312 147.344 34.2648C147.572 38.924 149.324 43.1983 152.435 46.3175C155.547 49.4289 159.845 51.1968 164.496 51.4325C164.637 51.4403 164.747 51.5582 164.747 51.6996C164.747 51.8411 164.637 51.9589 164.496 51.9668C159.852 52.1946 155.72 53.9468 152.608 57.0582C149.497 60.1696 147.745 64.3024 147.517 68.9459C147.509 69.0874 147.391 69.1974 147.25 69.1974H147.053C146.912 69.1974 146.794 69.0874 146.786 68.9459C146.558 64.2945 144.806 60.1696 141.695 57.0582C138.583 53.9468 134.458 52.1946 129.807 51.9668C129.673 51.9511 129.556 51.8332 129.556 51.6918Z" fill="#141414"/>
</svg>
