<svg width="5" height="14" viewBox="0 0 5 14" fill="none" xmlns="http://www.w3.org/2000/svg">
<path d="M1.05 5.25C0.883333 5.25 0.733333 5.19167 0.6 5.075C0.483333 4.94167 0.425 4.79167 0.425 4.625V1.6C0.425 1.41667 0.483333 1.26667 0.6 1.15C0.733333 1.03333 0.883333 0.974999 1.05 0.974999H4.225C4.40833 0.974999 4.55833 1.04167 4.675 1.175C4.80833 1.29167 4.875 1.43333 4.875 1.6V4.625C4.875 4.79167 4.80833 4.94167 4.675 5.075C4.55833 5.19167 4.40833 5.25 4.225 5.25H1.05ZM1.05 14C0.883333 14 0.733333 13.9417 0.6 13.825C0.483333 13.6917 0.425 13.5417 0.425 13.375V10.35C0.425 10.1667 0.483333 10.0167 0.6 9.9C0.733333 9.78333 0.883333 9.725 1.05 9.725H4.225C4.40833 9.725 4.55833 9.79167 4.675 9.925C4.80833 10.0417 4.875 10.1833 4.875 10.35V13.375C4.875 13.5417 4.80833 13.6917 4.675 13.825C4.55833 13.9417 4.40833 14 4.225 14H1.05Z" fill="#141414"/>
</svg>
