<svg width="17" height="17" viewBox="0 0 17 17" fill="none" xmlns="http://www.w3.org/2000/svg">
<g clip-path="url(#clip0)">
<path d="M16.9963 8.51407C16.9963 10.3739 17.0037 12.2342 16.9934 14.094C16.9865 15.3148 16.4237 16.2037 15.3274 16.7441C14.9583 16.9258 14.5583 16.9975 14.1491 16.9975C10.3815 16.9992 6.61449 17.0015 2.8469 16.9963C1.59696 16.9946 0.532129 16.2289 0.149868 15.0483C0.0547325 14.7542 0.00659167 14.4316 0.00544546 14.1221C-0.00429732 10.3739 -0.00257801 6.62506 0.000287516 2.87683C0.000860621 1.60908 0.759651 0.536763 1.94884 0.15105C2.24285 0.0559118 2.5655 0.00776938 2.87498 0.00662313C6.62366 -0.00254685 10.3718 -0.0014006 14.1204 0.00203814C15.7469 0.00375751 16.9917 1.25088 16.9951 2.87683C16.9991 4.7561 16.9963 6.63537 16.9963 8.51407ZM8.51204 1.41823C6.6569 1.41823 4.80176 1.4188 2.94662 1.41765C2.60046 1.41765 2.27551 1.48471 1.9924 1.69906C1.57346 2.016 1.41528 2.44699 1.41528 2.95878C1.41758 6.19694 1.41643 9.43509 1.41643 12.6732C1.41643 13.1455 1.41471 13.6177 1.417 14.0894C1.41987 14.7009 1.67719 15.1623 2.23081 15.442C2.46177 15.5583 2.71337 15.5807 2.9684 15.5807C5.82017 15.5807 8.67194 15.5807 11.5237 15.5807C12.3725 15.5807 13.2212 15.5807 14.07 15.5807C14.6867 15.5807 15.1543 15.3285 15.4386 14.7697C15.5561 14.5388 15.5784 14.2872 15.5784 14.0327C15.5784 11.6479 15.5784 9.26372 15.5784 6.87895C15.5784 5.56249 15.5778 4.24659 15.5784 2.93013C15.579 2.30714 15.3234 1.83661 14.7577 1.55291C14.5308 1.43886 14.2838 1.41765 14.0339 1.41765C12.1937 1.41823 10.3529 1.41823 8.51204 1.41823Z" fill="#C3FDAB"/>
<path d="M8.50577 12.7497C6.19845 12.736 4.25677 10.9071 4.25391 8.5046C4.25104 6.12499 6.16177 4.25546 8.49832 4.25488C10.8251 4.25431 12.7445 6.11467 12.7427 8.50402C12.741 10.8882 10.8194 12.7268 8.50577 12.7497ZM8.50692 5.66763C6.94979 5.66305 5.67406 6.92163 5.66661 8.46964C5.65916 10.0532 6.91483 11.3267 8.48915 11.3324C10.0566 11.3375 11.3254 10.0732 11.33 8.50116C11.3346 6.94283 10.0686 5.67222 8.50692 5.66763Z" fill="#C3FDAB"/>
<path d="M13.1032 4.95685C12.5106 4.95685 12.0418 4.48689 12.043 3.89313C12.0441 3.30339 12.5198 2.83113 13.1101 2.834C13.6906 2.83686 14.1635 3.31141 14.1652 3.89256C14.1669 4.4823 13.6935 4.95685 13.1032 4.95685Z" fill="#C3FDAB"/>
</g>
<defs>
<clipPath id="clip0">
<rect width="17" height="17" fill="white"/>
</clipPath>
</defs>
</svg>
