<svg width="56" height="50" viewBox="0 0 56 50" fill="none" xmlns="http://www.w3.org/2000/svg">
<g clip-path="url(#clip0)">
<path d="M27.9778 6.4437C28.6435 5.71304 29.2395 4.98237 29.9051 4.3336C35.3194 -0.925915 43.8909 -1.48021 49.8947 3.11792C54.3326 6.51299 56.336 11.0733 55.9493 16.6226C55.7908 18.8524 55.0047 20.931 54.06 22.9466C52.4624 26.3543 50.2498 29.3588 47.8343 32.2248C44.1762 36.5646 40.087 40.4762 35.7125 44.0854C33.3223 46.0569 30.8244 47.9151 28.3836 49.8299C28.1236 50.0315 27.9334 50.0693 27.6481 49.8551C20.7504 44.8035 14.2964 39.2605 8.67294 32.8105C6.42229 30.228 4.36184 27.5006 2.72615 24.4772C1.40746 22.0396 0.329685 19.4948 0.0697506 16.7108C-0.240903 13.3472 0.418443 10.1663 2.2887 7.31294C5.85804 1.85816 10.9553 -0.529089 17.441 0.176378C21.5682 0.623594 24.8966 2.64551 27.5023 5.84531C27.6545 6.03428 27.8003 6.22324 27.9778 6.4437Z" fill="#C2FFA8"/>
</g>
<defs>
<clipPath id="clip0">
<rect width="56" height="50" fill="white"/>
</clipPath>
</defs>
</svg>
