<svg width="26" height="26" viewBox="0 0 26 26" fill="none" xmlns="http://www.w3.org/2000/svg">
<path d="M13 26C20.1797 26 26 20.1797 26 13C26 5.8203 20.1797 0 13 0C5.8203 0 0 5.8203 0 13C0 20.1797 5.8203 26 13 26Z" fill="#FB4884"/>
<path d="M12.9847 20.1284C10.9704 20.1284 8.95563 20.1273 6.94135 20.1295C6.73285 20.1295 6.53498 20.1023 6.36637 19.972C6.13819 19.796 6.04564 19.5582 6.06373 19.2731C6.11479 18.4774 6.27223 17.7046 6.59722 16.9743C7.59664 14.7292 9.29019 13.2957 11.7034 12.8351C14.182 12.3622 16.3234 13.1016 18.0728 14.9228C19.0563 15.9467 19.6323 17.1833 19.8664 18.5806C19.9025 18.796 19.9222 19.0146 19.936 19.2327C19.9722 19.7949 19.6573 20.1273 19.0909 20.1273C17.0553 20.1289 15.0203 20.1284 12.9847 20.1284Z" fill="#C2FCAA"/>
<path d="M13.0071 4.5514C14.9682 4.55672 16.5666 6.16038 16.5613 8.11615C16.5559 10.0762 14.9518 11.6825 13.0013 11.6814C11.0503 11.6804 9.44612 10.0682 9.44824 8.1103C9.45037 6.14655 11.0514 4.54609 13.0071 4.5514Z" fill="#C2FCAA"/>
</svg>
