<svg width="53" height="53" viewBox="0 0 53 53" fill="none" xmlns="http://www.w3.org/2000/svg">
<path d="M26.5 53C41.1355 53 53 41.1355 53 26.5C53 11.8645 41.1355 0 26.5 0C11.8645 0 0 11.8645 0 26.5C0 41.1355 11.8645 53 26.5 53Z" fill="#FB4884"/>
<path d="M20.1079 16.4381C20.1079 23.1571 20.1079 29.8404 20.1079 36.5584C20.2217 36.5584 20.3269 36.5584 20.4321 36.5584C23.1654 36.5584 25.8988 36.5573 28.6322 36.5584C30.1458 36.5595 31.2756 37.4323 31.5737 38.9123C31.9511 40.7837 30.7736 42.564 28.6777 42.5727C24.8352 42.5889 20.9915 42.5803 17.149 42.5759C15.4088 42.5738 14.0806 41.2477 14.0806 39.5075C14.0773 30.8368 14.0773 22.1661 14.0806 13.4954C14.0816 11.7346 15.4023 10.4205 17.1663 10.4194C20.9286 10.4162 24.6899 10.4162 28.4522 10.4194C29.7956 10.4205 30.8191 11.0787 31.2983 12.2355C31.7841 13.4087 31.5195 14.7477 30.5947 15.6542C30.0699 16.1692 29.4118 16.424 28.6853 16.4283C26.0246 16.4435 23.3628 16.437 20.702 16.4392C20.5123 16.4381 20.3236 16.4381 20.1079 16.4381Z" fill="#C3FDAB"/>
<path d="M36.7061 29.5216C36.5608 29.5216 36.4458 29.5216 36.3298 29.5216C32.2162 29.5216 28.1037 29.5216 23.99 29.5227C23.6463 29.5227 23.3243 29.4696 23.0674 29.2169C22.8462 29.0012 22.7692 28.7258 22.7692 28.4287C22.7649 27.1471 22.7583 25.8666 22.7714 24.5851C22.7779 23.8489 23.1964 23.4748 23.9727 23.4748C28.0863 23.4737 32.1989 23.4748 36.3125 23.4748C36.4296 23.4748 36.5467 23.4748 36.7071 23.4748C36.7071 23.3696 36.7071 23.2742 36.7071 23.1799C36.7071 22.3493 36.7136 21.5199 36.705 20.6905C36.6995 20.2318 36.8709 19.8729 37.2818 19.6702C37.6884 19.4685 38.07 19.578 38.4159 19.8502C40.463 21.4624 42.51 23.0747 44.5571 24.687C44.9539 24.9992 45.3496 25.3115 45.7465 25.6238C46.3959 26.1366 46.4068 26.8631 45.7551 27.377C43.3264 29.2918 40.8934 31.2 38.4625 33.1105C38.1069 33.3891 37.7242 33.5344 37.2872 33.3176C36.847 33.0985 36.7039 32.7136 36.7071 32.2431C36.7104 31.3507 36.7061 30.4584 36.7061 29.5216Z" fill="#C3FDAB"/>
</svg>
