<svg width="69" height="37" viewBox="0 0 69 37" fill="none" xmlns="http://www.w3.org/2000/svg">
<path d="M0 11.5C0 5.14873 5.14873 0 11.5 0C17.8513 0 23 5.14873 23 11.5V25.5C23 31.8513 17.8513 37 11.5 37C5.14873 37 0 31.8513 0 25.5V11.5Z" fill="#C3FDAB"/>
<path d="M10.05 17.25C9.88333 17.25 9.73333 17.1917 9.6 17.075C9.48333 16.9417 9.425 16.7917 9.425 16.625V13.6C9.425 13.4167 9.48333 13.2667 9.6 13.15C9.73333 13.0333 9.88333 12.975 10.05 12.975H13.225C13.4083 12.975 13.5583 13.0417 13.675 13.175C13.8083 13.2917 13.875 13.4333 13.875 13.6V16.625C13.875 16.7917 13.8083 16.9417 13.675 17.075C13.5583 17.1917 13.4083 17.25 13.225 17.25H10.05ZM10.05 26C9.88333 26 9.73333 25.9417 9.6 25.825C9.48333 25.6917 9.425 25.5417 9.425 25.375V22.35C9.425 22.1667 9.48333 22.0167 9.6 21.9C9.73333 21.7833 9.88333 21.725 10.05 21.725H13.225C13.4083 21.725 13.5583 21.7917 13.675 21.925C13.8083 22.0417 13.875 22.1833 13.875 22.35V25.375C13.875 25.5417 13.8083 25.6917 13.675 25.825C13.5583 25.9417 13.4083 26 13.225 26H10.05Z" fill="#141414"/>
</svg>
