<svg width="27" height="27" viewBox="0 0 27 27" fill="none" xmlns="http://www.w3.org/2000/svg">
<path d="M13.5 27C20.9558 27 27 20.9558 27 13.5C27 6.04416 20.9558 0 13.5 0C6.04416 0 0 6.04416 0 13.5C0 20.9558 6.04416 27 13.5 27Z" fill="#FB4884"/>
<path d="M12.3436 21.2186C12.1315 21.2186 11.958 21.1462 11.8232 21.002C11.6879 20.8573 11.6205 20.6889 11.6205 20.4961V15.2057H6.47483C6.26273 15.2057 6.08487 15.1383 5.94015 15.0035C5.79599 14.8687 5.72363 14.6953 5.72363 14.4832V12.3727C5.72363 12.1611 5.79599 11.9827 5.94015 11.838C6.08487 11.6933 6.26273 11.6215 6.47483 11.6215H11.6205V6.50449C11.6205 6.29294 11.6879 6.1195 11.8232 5.98417C11.958 5.8494 12.1315 5.78201 12.3436 5.78201H14.7142C14.907 5.78201 15.0755 5.84995 15.2202 5.98417C15.3649 6.1195 15.4367 6.29294 15.4367 6.50449V11.6215H20.5537C20.7652 11.6215 20.9387 11.6938 21.074 11.838C21.2088 11.9827 21.2767 12.1611 21.2767 12.3727V14.4832C21.2767 14.6953 21.2088 14.8687 21.074 15.0035C20.9387 15.1388 20.7658 15.2057 20.5537 15.2057H15.4367V20.4961C15.4367 20.6889 15.3649 20.8573 15.2202 21.002C15.0755 21.1467 14.9065 21.2186 14.7142 21.2186H12.3436Z" fill="#C2FCAA"/>
</svg>
