<svg width="17" height="17" viewBox="0 0 17 17" fill="none" xmlns="http://www.w3.org/2000/svg">
<g clip-path="url(#clip0)">
<path d="M17.0001 8.50602C16.9903 13.2053 13.1737 17.0149 8.49034 17C3.78748 16.9845 -0.0205531 13.1663 8.34815e-05 8.48653C0.0212933 3.78498 3.81671 -0.00400936 8.50295 3.18402e-06C13.1984 0.00401573 17.0098 3.81937 17.0001 8.50602ZM4.1297 12.0864C3.85799 11.0448 3.72098 9.96716 3.68945 8.88263C2.69832 8.88263 1.72783 8.88263 0.755613 8.88263C0.842746 10.4722 1.36325 11.8932 2.29877 13.1468C2.9087 12.7931 3.50888 12.4458 4.1297 12.0864ZM2.30909 3.83255C1.36439 5.11026 0.841026 6.53013 0.755613 8.1191C1.73241 8.1191 2.70635 8.1191 3.68143 8.1191C3.68601 8.09903 3.69175 8.08585 3.69232 8.07209C3.72729 7.0317 3.84652 6.00277 4.11079 4.99333C4.13371 4.9062 4.08556 4.89129 4.02881 4.85976C3.62468 4.63678 3.2194 4.41552 2.821 4.18336C2.64501 4.08133 2.48393 3.9535 2.30909 3.83255ZM14.7111 3.86007C14.0995 4.22349 13.4964 4.58175 12.8796 4.94861C13.1542 5.97067 13.2723 7.04144 13.3124 8.12024C14.299 8.12024 15.2695 8.12024 16.2445 8.12024C16.1597 6.53128 15.6358 5.11141 14.7111 3.86007ZM13.3187 8.88091C13.3141 8.90154 13.3084 8.91473 13.3084 8.92791C13.2734 9.9683 13.1531 10.9972 12.8905 12.0067C12.8676 12.0944 12.9152 12.1099 12.9719 12.1408C13.3761 12.3638 13.7819 12.5839 14.1803 12.8166C14.3557 12.9187 14.5162 13.0471 14.6899 13.1674C15.6369 11.8897 16.1609 10.4699 16.2451 8.88091C15.2712 8.88091 14.3007 8.88091 13.3187 8.88091ZM4.4381 8.87861C4.47995 9.88003 4.58715 10.8556 4.82848 11.7963C5.37822 11.649 5.90961 11.4782 6.45304 11.3687C7.00106 11.2586 7.56111 11.2099 8.11773 11.1342C8.11773 10.3896 8.11773 9.63469 8.11773 8.87861C6.8887 8.87861 5.67057 8.87861 4.4381 8.87861ZM8.11716 8.12253C8.11716 7.3527 8.11716 6.59777 8.11716 5.83997C6.98272 5.78895 5.8884 5.58317 4.82619 5.1951C4.59632 6.169 4.45588 7.1343 4.44154 8.12253C5.67286 8.12253 6.891 8.12253 8.11716 8.12253ZM12.1734 5.19395C11.1049 5.58775 10.0054 5.78781 8.88358 5.84112C8.88358 6.61325 8.88358 7.3676 8.88358 8.12024C10.1132 8.12024 11.3319 8.12024 12.5592 8.12024C12.5431 7.13029 12.4044 6.16499 12.1734 5.19395ZM8.87842 11.1595C10.0174 11.2122 11.1123 11.4151 12.1728 11.806C12.4044 10.8316 12.5449 9.86627 12.5592 8.88263C11.3244 8.88263 10.1023 8.88263 8.87899 8.88263C8.87842 9.64386 8.87842 10.3948 8.87842 11.1595ZM8.88186 11.9173C8.88186 13.3514 8.88186 14.7782 8.88186 16.2061C9.24873 16.1597 9.67465 15.9596 10.0192 15.6845C10.6176 15.2081 11.0481 14.5999 11.3823 13.923C11.6047 13.4718 11.7893 13.0024 11.994 12.5329C10.965 12.1557 9.94522 11.9459 8.88186 11.9173ZM8.12117 0.787608C8.07818 0.795633 8.05009 0.800792 8.02257 0.806524C7.40118 0.94639 6.91679 1.31096 6.49947 1.76781C5.90904 2.41441 5.51809 3.18138 5.20625 3.99191C5.14548 4.15012 5.0916 4.31119 5.03198 4.47743C6.03916 4.84199 7.05724 5.05581 8.12117 5.0816C8.12117 3.6497 8.12117 2.22524 8.12117 0.787608ZM11.9556 4.48201C11.9556 4.4631 11.9579 4.45278 11.955 4.44418C11.6512 3.53391 11.2545 2.67006 10.6377 1.9243C10.2565 1.46286 9.80764 1.08282 9.23153 0.88047C9.11861 0.840917 9.00052 0.815696 8.88071 0.782449C8.88071 2.23098 8.88071 3.65486 8.88071 5.08217C9.94751 5.05581 10.9673 4.84257 11.9556 4.48201ZM8.1206 16.2118C8.1206 14.7713 8.1206 13.3486 8.1206 11.915C7.05437 11.9551 6.034 12.1712 5.01192 12.557C5.22631 13.0402 5.41433 13.5194 5.64764 13.9763C5.97897 14.6246 6.39343 15.2179 6.97412 15.6753C7.31061 15.9407 7.68092 16.139 8.1206 16.2118ZM14.2187 3.29086C13.6638 2.51185 11.6363 1.20262 10.9553 1.17339C11.7767 2.03837 12.2772 3.07762 12.6704 4.21489C13.1984 3.89962 13.7074 3.59639 14.2187 3.29086ZM6.0363 1.16364C4.76428 1.57235 3.70092 2.29231 2.76253 3.28169C3.30137 3.60155 3.81098 3.90421 4.33206 4.21432C4.72415 3.07074 5.23032 2.03379 6.0363 1.16364ZM10.9702 15.8352C12.2302 15.4185 13.3101 14.7272 14.2325 13.7166C13.7022 13.4019 13.1926 13.0992 12.7036 12.8086C12.4508 13.3618 12.225 13.8914 11.9688 14.4067C11.7091 14.929 11.3663 15.3996 10.9702 15.8352ZM4.34008 12.8149C3.81213 13.1239 3.30137 13.4231 2.78431 13.7258C3.67799 14.7341 5.01306 15.5469 6.05292 15.8432C5.23605 14.9731 4.73218 13.9453 4.34008 12.8149Z" fill="#C3FDAB"/>
</g>
<defs>
<clipPath id="clip0">
<rect width="17" height="17" fill="white"/>
</clipPath>
</defs>
</svg>
