<svg width="62" height="62" viewBox="0 0 62 62" fill="none" xmlns="http://www.w3.org/2000/svg">
<path d="M31 62C48.1208 62 62 48.1208 62 31C62 13.8792 48.1208 0 31 0C13.8792 0 0 13.8792 0 31C0 48.1208 13.8792 62 31 62Z" fill="#C3FDAB"/>
<path d="M8.27622 35.2389C8.27174 47.1561 18.6013 56.9281 31.0672 56.8945C43.4322 56.861 53.6566 47.1875 53.7238 35.3665" fill="#FB4884"/>
<path d="M25.3034 31C27.0076 31 28.3891 29.1954 28.3891 26.9694C28.3891 24.7433 27.0076 22.9388 25.3034 22.9388C23.5992 22.9388 22.2177 24.7433 22.2177 26.9694C22.2177 29.1954 23.5992 31 25.3034 31Z" fill="#FB4884"/>
<path d="M36.6966 31C38.4008 31 39.7823 29.1954 39.7823 26.9694C39.7823 24.7433 38.4008 22.9388 36.6966 22.9388C34.9924 22.9388 33.6109 24.7433 33.6109 26.9694C33.6109 29.1954 34.9924 31 36.6966 31Z" fill="#FB4884"/>
</svg>
