<svg width="17" height="13" viewBox="0 0 17 13" fill="none" xmlns="http://www.w3.org/2000/svg">
<g clip-path="url(#clip0)">
<path d="M16.8524 1.64615C16.3419 1.82208 15.8235 1.97012 15.2803 2.02775C15.2424 2.032 15.1954 2.06112 15.1588 1.99742C15.8326 1.58184 16.3262 1.03158 16.5978 0.299311C16.5038 0.301131 16.4555 0.336925 16.4046 0.363012C15.9273 0.609932 15.4167 0.775557 14.899 0.932688C14.5654 1.034 14.3336 0.987289 14.0613 0.76403C12.8548 -0.22729 10.9216 -0.256411 9.66672 0.680307C8.57835 1.49266 8.15527 2.55496 8.33939 3.83324C8.36812 4.03102 8.37073 4.03284 8.15919 4.0201C7.29215 3.96853 6.446 3.81261 5.62662 3.5487C3.87818 2.98631 2.40525 2.04413 1.20067 0.739156C1.09555 0.625099 1.07009 0.626919 0.996966 0.757963C0.74952 1.20084 0.623512 1.67527 0.618289 2.17032C0.606537 3.27145 1.07727 4.16449 2.00242 4.85247C2.03898 4.87977 2.10949 4.89857 2.09252 4.94711C2.07163 5.00717 1.99916 4.97684 1.94823 4.97805C1.91036 4.97866 1.87315 4.97016 1.83528 4.96592C1.45464 4.91981 1.0949 4.8106 0.746255 4.66439C0.600008 4.60312 0.578462 4.61829 0.592826 4.77056C0.603925 4.88583 0.610454 5.00292 0.633305 5.11637C0.894462 6.42074 1.69621 7.29558 3.04835 7.73057C3.14237 7.7609 3.23769 7.78699 3.34477 7.81854C3.28143 7.88285 3.21876 7.88345 3.16261 7.89498C2.79764 7.96657 2.43006 7.97264 2.06053 7.9332C1.86858 7.91257 1.83332 7.94837 1.91101 8.11035C2.49339 9.32493 3.49297 10.0123 4.91954 10.1567C4.9659 10.1615 5.03184 10.1403 5.05142 10.1907C5.07166 10.2435 5.00572 10.2635 4.96916 10.2883C3.56087 11.2512 1.97761 11.6631 0.238306 11.5812C0.167793 11.5782 0.0953222 11.5478 0 11.5806C0.0639834 11.6218 0.106421 11.6522 0.152124 11.6776C0.632652 11.9458 1.13342 12.1776 1.65639 12.3644C3.01375 12.8473 4.41551 13.0536 5.87146 12.9838C8.11283 12.8765 10.1048 12.1915 11.8102 10.8277C13.2942 9.64101 14.2951 8.15646 14.8853 6.43045C15.2143 5.46643 15.3736 4.47572 15.3403 3.46256C15.3351 3.29936 15.3893 3.19137 15.529 3.09248C16.0677 2.71088 16.5299 2.25768 16.9354 1.75353C16.9654 1.71592 17.0268 1.67163 16.9856 1.6237C16.9517 1.58548 16.8955 1.63098 16.8524 1.64615Z" fill="#C3FDAB"/>
</g>
<defs>
<clipPath id="clip0">
<rect width="17" height="13" fill="white"/>
</clipPath>
</defs>
</svg>
