<svg width="16" height="16" viewBox="0 0 16 16" fill="none" xmlns="http://www.w3.org/2000/svg">
<g clip-path="url(#clip0)">
<path d="M5.33087 0.0143638C5.33087 0.722575 5.33087 1.40739 5.33087 2.1183C4.27182 2.1183 3.22087 2.1183 2.14382 2.1183C2.14382 3.19366 2.14382 4.24383 2.14382 5.312C1.4195 5.312 0.722162 5.312 0.00683114 5.312C0.00683114 4.97364 0.00683114 4.64518 0.00683114 4.31672C0.00683114 3.60581 0.00413178 2.8958 0.00773093 2.18489C0.0140294 0.934048 0.919215 0.0152637 2.16812 0.00446502C3.16328 -0.00453385 4.15845 0.00266525 5.15271 0.00266525C5.204 0.00266525 5.25619 0.00986435 5.33087 0.0143638Z" fill="#C3FDAB"/>
<path d="M13.8724 2.13192C12.7936 2.13192 11.7489 2.13192 10.6836 2.13192C10.6836 1.41741 10.6836 0.721795 10.6836 0.00278495C10.7655 0.00278495 10.8384 0.00278495 10.9121 0.00278495C11.8623 0.00278495 12.8125 0.000985172 13.7627 0.00368483C15.0961 0.00728438 15.995 0.909871 15.9986 2.2471C16.0004 3.19739 15.9986 4.14677 15.9986 5.09705C15.9986 5.16364 15.9986 5.23023 15.9986 5.31392C15.286 5.31392 14.5887 5.31392 13.8724 5.31392C13.8724 4.25565 13.8724 3.21088 13.8724 2.13192Z" fill="#C3FDAB"/>
<path d="M2.12993 13.8718C2.6923 13.8718 3.22137 13.8718 3.75045 13.8718C4.27142 13.8718 4.7933 13.8718 5.32597 13.8718C5.32597 14.5899 5.32597 15.2819 5.32597 15.9802C5.27829 15.9874 5.24229 15.9964 5.2063 15.9964C4.15175 15.9964 3.0963 16.009 2.04265 15.9892C1.0133 15.9703 0.0802204 15.1379 0.0289326 14.1139C-0.0277539 12.9809 0.0163356 11.8425 0.0163356 10.688C0.717269 10.688 1.4146 10.688 2.12993 10.688C2.12993 11.7418 2.12993 12.7874 2.12993 13.8718Z" fill="#C3FDAB"/>
<path d="M10.6797 15.9874C10.6797 15.2837 10.6797 14.5917 10.6797 13.8754C11.7396 13.8754 12.7906 13.8754 13.8667 13.8754C13.8667 12.8 13.8667 11.7499 13.8667 10.6844C14.5848 10.6844 15.2767 10.6844 15.9884 10.6844C15.992 10.7609 15.9992 10.8329 15.9992 10.9049C16.0001 11.8623 16.0019 12.8198 15.9992 13.7764C15.9956 15.0794 15.0859 15.9919 13.7848 15.9964C12.8203 16 11.8548 15.9973 10.8902 15.9964C10.8246 15.9973 10.7589 15.991 10.6797 15.9874Z" fill="#C3FDAB"/>
<path d="M9.08316 9.07527C8.36243 9.07527 7.6426 9.07527 6.92188 9.07527L6.92637 9.07977C6.92637 8.35985 6.92637 7.63904 6.92637 6.91913L6.92188 6.92363C7.6426 6.92363 8.36243 6.92363 9.08316 6.92363L9.07866 6.91913C9.07866 7.63904 9.07866 8.35985 9.07866 9.07977L9.08316 9.07527Z" fill="#C3FDAB"/>
<path d="M6.92702 6.92016C6.23238 6.92016 5.53775 6.92016 4.82422 6.92016C4.82422 6.22185 4.82422 5.52533 4.82422 4.81622C5.52155 4.81622 6.21349 4.81622 6.92162 4.81622C6.92162 5.52443 6.92162 6.22454 6.92162 6.92466L6.92702 6.92016Z" fill="#C3FDAB"/>
<path d="M9.08352 6.92458C9.08352 6.22987 9.08352 5.53516 9.08352 4.82245C9.78176 4.82245 10.4782 4.82245 11.1872 4.82245C11.1872 5.51986 11.1872 6.21097 11.1872 6.92008C10.4782 6.92008 9.77816 6.92008 9.07812 6.92008C9.07902 6.91918 9.08352 6.92458 9.08352 6.92458Z" fill="#C3FDAB"/>
<path d="M6.92206 9.07532C6.92206 9.77003 6.92206 10.4647 6.92206 11.1775C6.22382 11.1775 5.52739 11.1775 4.81836 11.1775C4.81836 10.48 4.81836 9.78893 4.81836 9.07982C5.52739 9.07982 6.22742 9.07982 6.92745 9.07982C6.92655 9.08072 6.92206 9.07532 6.92206 9.07532Z" fill="#C3FDAB"/>
<path d="M9.07812 9.07982C9.77276 9.07982 10.4674 9.07982 11.1809 9.07982C11.1809 9.77813 11.1809 10.4747 11.1809 11.1838C10.4836 11.1838 9.79166 11.1838 9.08352 11.1838C9.08352 10.4756 9.08352 9.77543 9.08352 9.07532C9.08262 9.07532 9.07812 9.07982 9.07812 9.07982Z" fill="#C3FDAB"/>
</g>
<defs>
<clipPath id="clip0">
<rect width="16" height="16" fill="white"/>
</clipPath>
</defs>
</svg>
